<?xml version="1.0" standalone="no"?>
<!DOCTYPE svg PUBLIC "-//W3C//DTD SVG 20010904//EN"
 "http://www.w3.org/TR/2001/REC-SVG-20010904/DTD/svg10.dtd">
<svg version="1.0" xmlns="http://www.w3.org/2000/svg"
 width="500.000000pt" height="500.000000pt" viewBox="0 0 500.000000 500.000000"
 preserveAspectRatio="xMidYMid meet">
<metadata>
Created by potrace 1.14, written by Peter Selinger 2001-2017
</metadata>
<g transform="translate(0.000000,500.000000) scale(0.100000,-0.100000)"
fill="#000000" stroke="none">
<path d="M2549 4913 c-44 -4 -45 -5 -41 -33 10 -70 -14 -92 -105 -92 -26 0
-33 -3 -29 -15 3 -8 6 -18 6 -21 0 -4 4 -1 9 7 5 8 30 17 56 21 42 6 48 5 55
-14 l9 -21 0 22 c1 16 8 23 29 26 l27 4 -28 2 c-24 1 -27 4 -22 29 4 15 8 37
11 48 3 18 13 23 59 29 30 3 59 4 64 1 5 -3 20 -2 33 3 18 8 11 9 -32 9 -30
-1 -76 -3 -101 -5z"/>
<path d="M2374 4902 c-10 -2 -23 -8 -29 -14 -7 -6 0 -7 18 -3 25 7 27 5 28
-21 1 -29 1 -29 8 -4 6 21 15 26 51 30 l45 6 -51 4 c-28 3 -60 3 -70 2z"/>
<path d="M2077 4878 c-4 -12 -5 -23 -4 -24 1 -1 31 4 67 12 l65 14 -59 -6
c-51 -5 -58 -4 -53 10 4 9 3 16 -2 16 -5 0 -11 -10 -14 -22z"/>
<path d="M2240 4870 c0 -11 2 -20 4 -20 2 0 6 9 9 20 3 11 1 20 -4 20 -5 0 -9
-9 -9 -20z"/>
<path d="M2293 4883 c9 -2 23 -2 30 0 6 3 -1 5 -18 5 -16 0 -22 -2 -12 -5z"/>
<path d="M2651 4874 c0 -11 3 -14 6 -6 3 7 2 16 -1 19 -3 4 -6 -2 -5 -13z"/>
<path d="M1938 4853 c-40 -3 -46 -7 -45 -24 1 -18 3 -18 13 -5 6 9 25 16 42
16 17 0 34 5 37 10 3 6 5 9 3 8 -2 -1 -24 -3 -50 -5z"/>
<path d="M2008 4853 c7 -3 16 -2 19 1 4 3 -2 6 -13 5 -11 0 -14 -3 -6 -6z"/>
<path d="M2791 4848 c0 -9 -11 -19 -23 -21 l-23 -4 23 -2 c19 -1 22 -7 24 -43
l1 -43 4 40 c3 22 10 43 16 47 9 6 9 8 0 8 -6 0 -14 8 -16 18 -4 15 -5 15 -6
0z"/>
<path d="M2990 4856 c0 -9 40 -13 46 -5 3 5 -6 9 -20 9 -14 0 -26 -2 -26 -4z"/>
<path d="M2919 4846 c-2 -2 -2 -28 1 -58 l4 -53 6 50 c4 42 9 50 30 56 24 7
23 7 -6 8 -17 1 -33 -1 -35 -3z"/>
<path d="M1805 4835 c-5 -2 -22 -6 -37 -9 -26 -6 -28 -10 -27 -54 1 -51 4 -48
14 11 5 33 9 37 35 37 16 0 32 5 35 10 6 10 -1 12 -20 5z"/>
<path d="M1848 4833 c6 -2 18 -2 25 0 6 3 1 5 -13 5 -14 0 -19 -2 -12 -5z"/>
<path d="M2071 4824 c0 -11 3 -14 6 -6 3 7 2 16 -1 19 -3 4 -6 -2 -5 -13z"/>
<path d="M2640 4811 c0 -6 5 -13 10 -16 6 -3 10 -2 10 4 0 5 17 12 38 14 34 3
33 4 -10 5 -27 1 -48 -2 -48 -7z"/>
<path d="M2583 4803 c9 -2 25 -2 35 0 9 3 1 5 -18 5 -19 0 -27 -2 -17 -5z"/>
<path d="M1889 4783 c-1 -10 -2 -22 -4 -28 -1 -5 -3 -15 -3 -20 -1 -6 -10 -11
-19 -11 -59 -3 -209 -17 -212 -20 -2 -2 15 -4 38 -4 40 0 41 -1 35 -27 -13
-61 -13 -67 1 -38 8 17 14 37 15 47 0 12 15 18 63 25 34 5 65 8 70 6 4 -3 8
-19 8 -36 l2 -32 6 35 c4 25 12 36 31 41 l25 7 -25 1 c-24 1 -26 4 -22 36 2
19 1 35 -2 35 -3 0 -7 -8 -7 -17z"/>
<path d="M3161 4783 c-1 -15 -7 -23 -18 -23 -16 0 -16 -1 0 -12 10 -8 17 -31
19 -63 l3 -50 5 62 c3 35 2 73 -2 85 l-6 23 -1 -22z"/>
<path d="M3310 4789 c0 -5 -17 -10 -37 -11 l-38 -1 35 -4 c19 -3 38 -10 42
-16 5 -8 8 -6 8 5 0 9 8 18 18 20 14 3 13 5 -5 10 -13 3 -23 2 -23 -3z"/>
<path d="M2209 4768 c-18 -4 -19 -6 -5 -7 16 -1 18 -7 13 -48 -4 -31 -3 -41 3
-28 5 11 9 30 9 43 1 26 9 30 77 42 l49 8 -61 -1 c-33 -1 -72 -5 -85 -9z"/>
<path d="M2640 4740 c0 -16 2 -30 4 -30 2 0 6 14 8 30 3 17 1 30 -4 30 -4 0
-8 -13 -8 -30z"/>
<path d="M3198 4763 c6 -2 18 -2 25 0 6 3 1 5 -13 5 -14 0 -19 -2 -12 -5z"/>
<path d="M2037 4739 c8 -8 19 -8 40 -1 28 10 28 10 -11 11 -29 1 -37 -2 -29
-10z"/>
<path d="M3040 4743 c-34 -6 -41 -15 -24 -31 11 -10 14 -10 14 1 0 7 17 18 38
24 37 10 19 14 -28 6z"/>
<path d="M3422 4665 c0 -55 3 -78 7 -60 4 17 4 57 0 90 -6 56 -6 54 -7 -30z"/>
<path d="M1968 4733 c6 -2 18 -2 25 0 6 3 1 5 -13 5 -14 0 -19 -2 -12 -5z"/>
<path d="M2875 4720 l-40 -7 45 0 c25 -1 59 3 75 7 l30 8 -35 -1 c-19 0 -53
-3 -75 -7z"/>
<path d="M1531 4713 c-1 -6 -22 -15 -48 -19 -77 -11 -94 -22 -25 -17 69 6 67
8 51 -64 l-11 -49 -71 -3 c-39 -1 -74 -4 -78 -6 -3 -3 -4 18 -1 46 l5 51 -34
-17 c-45 -23 -257 -162 -275 -180 -18 -18 -18 -89 0 -104 14 -12 20 -187 6
-206 -4 -5 -10 -37 -13 -70 -6 -74 -59 -348 -68 -355 -4 -3 -9 -14 -11 -25 -2
-11 -10 -19 -16 -18 -16 4 -15 -5 3 -23 21 -21 19 -51 -8 -117 l-23 -55 -37
37 c-27 27 -37 46 -37 69 0 23 -5 32 -16 32 -11 0 -14 5 -10 16 5 12 2 15 -12
12 -23 -6 -42 15 -41 44 0 19 2 20 7 6 4 -10 8 12 8 47 1 35 7 93 12 127 6 35
16 92 22 128 6 36 20 115 30 175 24 132 24 133 6 115 -8 -8 -17 -30 -19 -48
-7 -44 -17 -54 -17 -17 l0 28 -24 -22 c-17 -16 -27 -41 -35 -89 -6 -37 -15
-87 -21 -112 -11 -46 -16 -75 -19 -97 0 -7 -6 -13 -12 -13 -5 0 -7 5 -4 10 3
6 1 10 -4 10 -6 0 -11 -9 -11 -21 0 -12 -8 -23 -20 -26 -11 -3 -17 -9 -14 -14
3 -5 -6 -9 -20 -9 -25 0 -26 1 -25 71 1 78 8 86 14 14 4 -49 15 -75 15 -37 0
12 5 22 12 22 9 0 9 3 0 12 -15 15 -16 58 -2 58 6 0 10 -11 10 -24 0 -14 4
-28 10 -31 6 -3 7 1 4 9 -3 9 -2 16 3 16 5 0 9 9 9 20 0 19 -9 25 -31 20 -5
-1 -20 -3 -31 -4 -21 -1 -103 -96 -151 -176 -65 -106 -105 -184 -108 -208 -4
-51 -79 -389 -149 -672 -32 -132 -46 -174 -57 -172 -10 3 -11 0 -3 -8 6 -6 9
-22 6 -36 -3 -19 -9 -24 -23 -21 -11 3 -17 1 -13 -4 8 -13 -10 -11 -24 3 -17
17 -25 3 -12 -22 8 -15 8 -20 1 -16 -8 5 -11 -15 -11 -64 0 -70 0 -71 29 -76
28 -6 29 -8 26 -58 -3 -54 -22 -106 -38 -106 -5 0 -7 7 -3 15 7 19 -3 47 -15
39 -14 -8 -10 -41 7 -58 12 -13 14 -25 7 -59 -5 -23 -8 -48 -5 -55 7 -21 22
-2 22 28 0 32 17 49 26 26 5 -12 -14 -122 -33 -188 -2 -10 0 -18 5 -18 6 0 16
24 22 53 7 28 15 55 17 60 4 7 116 -88 200 -171 33 -33 43 -49 43 -75 0 -24
-3 -28 -10 -17 -8 12 -10 10 -10 -8 0 -13 4 -20 10 -17 6 3 10 -3 10 -14 0
-12 -5 -21 -10 -21 -6 0 -10 -12 -11 -27 0 -83 -1 -85 -18 -78 -13 5 -14 4 -4
-6 7 -7 13 -21 13 -30 0 -10 4 -19 9 -21 4 -2 5 -12 0 -23 -7 -19 -8 -19 -8 3
-1 36 -18 25 -25 -15 -8 -51 -6 -75 4 -38 l8 30 1 -30 c1 -24 3 -27 12 -15 8
12 9 11 5 -5 -2 -11 -10 -53 -17 -94 -7 -40 -18 -79 -24 -85 -10 -9 -9 -21 3
-50 11 -27 17 -34 23 -24 6 8 9 1 9 -21 0 -19 3 -32 6 -28 9 8 20 66 58 288
32 185 51 259 67 259 3 0 49 -41 102 -90 88 -84 96 -93 92 -123 -3 -18 -7 -61
-10 -97 -5 -61 -15 -143 -21 -165 -1 -5 -5 -26 -9 -45 -3 -19 -10 -53 -14 -75
-5 -22 -9 -55 -9 -73 0 -18 -8 -76 -17 -129 -10 -56 -13 -99 -7 -105 7 -7 29
90 47 214 3 21 10 40 16 44 7 4 8 -6 5 -28 -3 -18 -8 -60 -11 -93 -3 -33 -10
-84 -16 -113 -6 -29 -8 -59 -5 -67 5 -14 46 -9 46 6 0 5 5 9 10 9 6 0 10 -13
10 -28 0 -15 6 -34 13 -41 10 -11 9 -14 -2 -18 -8 -4 14 -33 65 -84 43 -44 82
-79 85 -79 4 0 6 14 5 32 0 17 4 33 10 35 8 2 10 -14 7 -49 -2 -38 -1 -48 6
-33 5 11 10 37 10 57 1 41 7 44 86 51 27 3 20 4 -23 5 l-63 2 5 33 c3 17 8 59
10 92 3 33 13 117 22 188 l18 127 30 1 31 2 -28 4 -29 4 7 77 c8 109 23 228
46 364 10 64 19 119 19 122 0 3 12 7 28 9 l27 4 -29 2 c-25 1 -28 4 -23 29 3
15 14 75 23 135 l18 107 35 2 36 1 -32 4 c-36 5 -39 13 -27 85 6 34 10 37 43
41 l36 4 -37 1 c-38 2 -38 2 -38 46 0 47 18 76 48 76 9 0 34 3 54 6 36 6 37 5
41 -27 l4 -34 1 33 c2 35 -7 33 122 38 97 4 98 4 77 13 -10 4 -57 3 -104 -1
-62 -6 -88 -5 -93 3 -6 8 -9 8 -11 0 -5 -13 -129 -28 -129 -15 2 52 29 387 32
389 2 2 34 7 71 11 l67 7 1 -39 2 -39 7 45 c4 25 7 45 6 46 0 1 -32 -2 -71 -7
-38 -4 -73 -4 -77 -1 -4 4 -1 57 7 117 22 163 22 165 53 166 15 0 47 3 71 6
l43 5 -4 -36 c-2 -20 0 -36 4 -36 4 0 8 10 8 23 0 37 13 45 80 56 92 15 90 16
91 -26 l2 -38 6 35 6 35 89 3 89 3 -6 -52 c-4 -28 -9 -54 -12 -57 -3 -3 -33
-8 -68 -11 l-62 -6 65 -5 65 -5 -3 -50 c-5 -76 -9 -85 -45 -86 l-32 -2 35 -6
c34 -6 34 -6 31 -56 -1 -27 -5 -52 -8 -55 -2 -3 -34 -10 -71 -17 l-67 -12 68
5 67 6 0 -40 c0 -22 -3 -53 -6 -69 -6 -28 -10 -31 -72 -40 l-67 -11 60 2 60 1
5 -50 5 -50 8 47 c9 52 3 50 131 63 l59 7 -6 -53 c-4 -29 -12 -56 -18 -60 -17
-10 -166 -22 -178 -14 -6 3 -11 2 -11 -2 0 -5 -17 -10 -38 -11 -21 -2 -51 -7
-67 -12 -22 -7 -11 -8 39 -3 l68 6 -7 -64 c-4 -35 -11 -68 -15 -73 -5 -5 -35
-12 -67 -16 l-58 -7 64 -2 64 -1 -6 -45 c-2 -26 -7 -49 -10 -52 -4 -3 -32 -9
-64 -13 l-58 -7 63 -2 62 -1 0 -32 c0 -55 4 -53 -160 -82 -14 -3 15 -2 63 1
l88 5 -2 -56 c-1 -30 -5 -59 -8 -64 -3 -5 -33 -16 -66 -25 l-60 -16 61 6 62 5
-5 -68 c-3 -38 -7 -71 -9 -73 -2 -2 -47 -6 -100 -9 l-97 -5 8 59 c9 72 10 74
43 75 27 1 27 1 -3 8 -28 6 -30 9 -28 51 1 25 -1 34 -3 20 -11 -60 -15 -70
-31 -70 -15 0 -15 -1 0 -13 15 -10 17 -22 11 -70 l-7 -57 -36 -2 -36 -1 33 -4
c17 -2 32 -9 32 -14 0 -6 7 -6 18 -1 9 5 56 9 105 11 l87 2 0 -66 0 -65 -55 0
c-30 0 -55 -4 -55 -9 0 -5 21 -6 46 -3 54 6 61 -1 56 -61 l-4 -45 -87 -11
c-48 -6 -93 -11 -99 -11 -13 0 -17 87 -4 107 4 6 25 13 47 16 l40 4 -42 1
c-39 2 -42 4 -46 35 l-4 32 -1 -32 c-2 -30 -5 -33 -36 -33 -18 0 -54 -3 -80
-6 l-47 -7 2 54 c4 81 7 89 40 89 16 0 29 5 29 11 0 8 -11 9 -31 5 l-32 -6 7
52 c4 29 12 58 18 65 7 9 7 13 -1 13 -7 0 -9 15 -5 43 3 23 6 56 7 72 2 26 7
31 37 36 l35 6 -33 2 -33 1 3 58 3 57 33 0 c17 0 32 3 32 7 0 5 -16 8 -36 8
-30 0 -35 3 -29 18 5 13 1 12 -14 -5 -22 -23 -28 -38 -11 -28 11 7 14 -73 4
-99 -4 -9 -18 -16 -34 -16 -16 0 -32 -5 -35 -11 -5 -7 4 -9 26 -7 40 4 44 -8
34 -87 -5 -46 -9 -52 -26 -48 -10 3 -19 0 -19 -6 0 -6 9 -11 20 -11 18 0 19
-5 14 -47 -7 -61 -12 -75 -22 -69 -4 2 -23 1 -42 -4 l-35 -8 43 -1 43 -1 -3
-67 -3 -68 -70 -6 -70 -5 67 -2 67 -2 4 -32 3 -33 8 33 c6 23 14 32 30 32 11
0 45 3 74 6 l52 7 0 -62 0 -61 -52 -1 c-116 -2 -211 -10 -225 -18 -8 -4 9 -6
41 -3 l56 4 0 -47 c0 -57 7 -57 12 0 4 38 6 40 43 47 22 4 57 7 78 7 37 1 37
1 38 -41 l1 -43 9 41 10 41 67 7 c37 3 80 6 95 6 l28 0 -3 -68 -3 -67 -70 -7
c-38 -4 -84 -9 -102 -13 -29 -5 -32 -3 -36 22 l-4 28 -2 -27 c-1 -26 -4 -28
-40 -28 -22 0 -42 -4 -45 -9 -3 -5 15 -6 39 -3 34 3 45 1 45 -9 0 -12 2 -12 9
0 9 14 176 34 195 23 8 -4 4 -108 -5 -116 -6 -6 -82 -15 -239 -27 -80 -6 -146
-12 -148 -14 -1 -1 2 -13 7 -26 7 -16 10 -19 10 -7 1 23 6 25 84 33 l67 7 0
-65 0 -65 -67 -10 -68 -10 65 1 65 2 6 -60 6 -60 1 62 2 62 53 4 52 3 -52 2
-53 2 0 60 c0 40 4 62 13 66 20 7 188 21 191 14 1 -3 0 -33 -2 -67 l-4 -62
-46 -4 -47 -3 48 -2 c26 -1 47 -5 47 -9 0 -5 -5 -35 -11 -68 -10 -61 -14 -93
-17 -177 -2 -45 -4 -48 -29 -49 l-28 -1 25 -7 c24 -7 25 -9 21 -81 -2 -41 -4
-76 -5 -76 0 -1 -66 -5 -146 -8 -79 -4 -146 -9 -149 -12 -3 -3 79 -8 109 -6 3
0 46 3 96 7 l91 7 6 -47 c4 -25 2 -55 -3 -65 -13 -24 -4 -29 40 -22 l35 6 -29
5 c-28 6 -28 7 -32 86 -1 44 0 108 3 142 5 57 7 62 32 66 26 4 26 4 -3 6 l-28
1 7 68 c4 37 10 70 13 74 4 3 41 8 82 10 l75 3 -4 -70 c-1 -38 -8 -73 -15 -77
-8 -6 -8 -8 2 -8 9 0 11 -16 8 -63 -3 -34 -5 -68 -6 -74 0 -7 -12 -13 -27 -14
-16 -1 -39 -5 -53 -9 -16 -6 -7 -7 28 -3 l52 6 0 -66 0 -66 -42 -4 -43 -4 44
-1 44 -2 -7 -67 c-4 -37 -3 -64 1 -59 4 4 10 33 13 64 l5 57 78 3 77 3 1 -43
2 -43 6 40 6 40 70 6 70 5 -71 2 -70 2 8 62 c4 35 10 101 12 147 3 46 9 88 14
93 4 4 42 11 84 14 l77 7 -4 -29 c-2 -16 -6 -50 -10 -75 l-6 -47 -67 -10 -67
-10 65 1 65 2 -2 -70 c-2 -48 0 -64 7 -50 5 11 9 43 9 72 l1 52 38 4 37 4 -38
1 c-36 2 -38 4 -33 29 3 16 8 49 12 75 4 31 12 48 23 51 14 4 14 5 -1 6 -19 1
-24 48 -12 110 6 29 9 31 53 31 25 0 52 4 58 8 7 4 -17 6 -54 4 -44 -3 -64 -1
-59 6 3 6 9 37 12 68 3 32 8 62 10 66 3 4 48 8 100 8 l94 0 1 -42 2 -43 6 40
c6 38 8 40 46 46 l40 6 -42 2 c-33 1 -41 4 -38 19 2 9 4 40 4 69 1 48 3 52 29
56 l27 4 -27 2 c-27 1 -28 4 -28 50 0 66 7 81 39 82 25 1 25 1 -4 8 -16 4 -55
4 -85 1 l-55 -7 50 -2 50 -1 -3 -65 -4 -65 -31 -1 -32 -1 30 -7 c25 -5 31 -11
33 -40 2 -19 1 -50 -3 -68 l-6 -33 -100 0 c-91 0 -100 2 -95 18 3 9 8 38 11
64 l7 47 62 4 61 3 -62 2 c-70 2 -68 0 -57 85 5 36 11 47 28 50 20 4 20 4 -1
6 -22 1 -22 4 -17 63 8 87 8 86 56 91 l43 4 -42 1 -43 2 0 49 c0 27 6 53 13
59 6 5 46 11 87 13 l75 4 2 -40 c2 -54 -5 -75 -25 -75 -16 -1 -15 -2 1 -11 13
-8 17 -24 18 -72 l2 -62 7 58 c4 32 10 60 13 64 3 3 34 8 68 10 l61 5 -4 -41
c-2 -23 0 -41 4 -41 5 0 8 18 8 39 0 46 9 51 84 51 51 0 54 -1 64 -32 l10 -33
1 31 c1 19 7 34 17 38 22 9 132 7 137 -2 3 -4 0 -36 -7 -72 l-11 -65 -40 -4
c-56 -4 -57 -11 -2 -11 39 0 46 -3 50 -22 4 -23 4 -23 6 -1 0 12 9 24 19 26
15 4 15 5 -2 6 -16 1 -17 7 -12 49 12 88 18 103 39 112 30 12 -295 -4 -337
-17 -18 -5 -18 -1 -12 43 4 27 10 83 13 124 6 90 17 120 40 121 10 0 38 3 62
5 27 3 47 1 51 -6 12 -19 17 10 9 50 -5 30 -7 31 -8 8 -1 -34 -3 -34 -79 -43
-62 -7 -63 -7 -58 16 3 13 8 45 11 72 5 37 10 47 25 47 10 0 21 4 24 8 3 5 -5
8 -17 8 -21 -1 -22 3 -19 59 2 33 9 63 15 67 9 6 8 8 -1 8 -10 0 -12 13 -8 52
6 58 11 65 46 71 17 3 14 4 -7 3 -29 -2 -33 1 -34 24 -1 20 -2 21 -6 5 -3 -11
-12 -26 -21 -33 -14 -11 -14 -12 0 -12 12 0 14 -10 10 -52 -2 -29 -5 -54 -6
-55 -1 -1 -36 -3 -78 -4 -42 -1 -94 -5 -115 -9 -38 -8 -38 -8 -5 -9 31 -1 32
-3 34 -43 l1 -43 4 40 c3 22 10 43 16 47 21 13 137 9 142 -4 3 -7 1 -35 -3
-63 l-7 -50 -55 -6 -55 -6 58 -1 c57 -2 57 -2 53 -30 -2 -15 -7 -46 -11 -68
-6 -39 -9 -42 -43 -48 -20 -3 -54 -6 -76 -6 -31 0 -37 3 -32 16 3 9 6 38 6 66
0 41 3 51 20 55 41 11 18 19 -42 15 -72 -4 -91 -12 -30 -12 47 0 48 -3 36 -93
l-7 -46 -56 -6 c-31 -3 -69 -9 -84 -12 -28 -5 -29 -4 -27 34 3 57 -2 64 -9 13
-6 -43 -7 -44 -46 -48 -54 -5 -58 -12 -7 -12 l42 0 0 -65 c0 -74 3 -72 -91
-85 l-64 -9 70 2 70 2 3 -34 c6 -63 -3 -79 -51 -84 l-42 -4 43 -1 c42 -2 42
-2 42 -39 0 -21 -3 -55 -6 -76 l-7 -37 -84 0 -84 0 7 63 c3 34 9 65 13 69 3 4
21 8 39 10 17 1 32 6 32 11 0 4 -16 5 -35 1 l-35 -6 0 43 c0 24 4 51 9 59 6 8
7 18 4 24 -7 10 -4 128 3 135 2 2 21 7 41 11 l38 8 -39 1 -38 1 5 65 c2 36 6
67 8 69 2 2 31 8 64 14 l60 11 -64 -6 -63 -5 5 58 c3 33 6 65 6 72 1 7 17 12
44 12 23 0 49 5 57 10 10 6 -4 8 -43 6 -48 -3 -57 -1 -53 11 3 8 6 32 6 53 l0
38 86 7 c68 5 88 4 95 -6 6 -10 9 -10 9 -2 0 6 15 14 33 16 l32 4 -33 1 c-33
2 -34 3 -28 40 3 20 5 45 6 54 0 9 10 19 23 21 l22 4 -22 2 c-13 0 -23 7 -23
14 0 9 -2 9 -8 0 -4 -6 -21 -13 -37 -16 l-30 -4 34 -2 33 -1 -7 -48 c-4 -26
-10 -50 -13 -54 -4 -3 -44 -10 -89 -14 l-83 -7 -2 44 -1 44 -4 -40 c-3 -22 -9
-43 -16 -47 -8 -5 -8 -10 0 -20 7 -8 8 -29 4 -53 -5 -34 -10 -40 -31 -41 -14
0 -50 -3 -80 -5 -53 -4 -55 -3 -52 20 9 59 18 68 76 75 31 4 58 11 61 15 2 5
-15 5 -38 0 -85 -17 -88 -15 -81 39 8 59 10 62 40 62 13 0 24 4 24 9 0 4 -12
6 -26 3 l-27 -5 8 69 c8 80 10 84 36 84 10 0 19 5 19 11 0 5 -9 9 -20 7 -23
-4 -24 2 -16 64 7 52 -3 46 110 63 26 4 37 1 45 -12 9 -16 10 -16 11 -2 0 12
15 20 48 28 l47 10 -47 -4 c-47 -4 -47 -4 -43 23 3 15 7 42 9 60 3 19 7 36 10
39 2 3 38 8 78 13 l73 7 -77 2 c-55 1 -78 5 -78 14 0 9 -2 9 -8 1 -4 -7 -42
-15 -84 -19 -63 -6 -78 -5 -78 6 0 10 -3 10 -8 3 -6 -9 -130 -27 -167 -24 -8
0 -11 52 -6 102 1 5 126 22 176 23 5 0 9 -18 8 -40 l-2 -40 13 40 c11 35 17
41 52 47 21 4 56 7 76 7 l38 1 -5 -47 -5 -48 13 50 c9 39 17 51 37 56 l25 7
-26 1 -25 1 11 72 c10 69 12 73 40 79 l30 7 -29 1 c-28 1 -29 2 -22 48 3 26
10 51 15 56 5 5 39 12 76 15 l67 5 -7 -49 c-10 -63 -8 -60 -51 -62 -52 -2 -56
-12 -6 -12 l42 0 -1 -47 c-2 -79 -10 -96 -49 -101 -50 -5 -50 -12 -1 -12 38 0
42 -2 41 -22 -4 -40 2 -44 9 -8 6 32 9 35 48 41 61 8 63 17 4 11 l-50 -4 5 38
c15 114 10 107 89 117 17 2 7 5 -23 6 l-53 1 7 48 c8 56 5 52 46 62 l33 8 -39
1 c-28 1 -37 5 -33 15 3 7 8 34 12 59 8 52 11 53 94 63 l61 7 0 -29 c0 -16 -3
-46 -6 -66 -6 -36 -8 -38 -45 -38 -22 0 -39 -4 -39 -9 0 -5 19 -7 42 -4 l41 6
-6 -33 c-4 -18 -7 -43 -7 -56 0 -18 -6 -24 -22 -25 -16 0 -18 -2 -8 -6 22 -9
29 -24 24 -53 -8 -43 -12 -75 -13 -87 -1 -6 -13 -14 -28 -16 l-28 -4 29 -2 28
-1 -7 -67 c-4 -38 -9 -70 -12 -73 -2 -3 -43 -7 -89 -9 -46 -1 -84 -7 -84 -11
0 -7 29 -6 133 4 l37 4 1 -51 1 -52 8 48 c5 27 10 50 12 52 2 1 29 5 61 9 l57
6 0 -64 0 -63 -37 -7 c-57 -9 -103 -7 -103 4 0 6 -6 5 -14 -2 -9 -8 -10 -15
-4 -19 6 -4 9 -23 6 -43 -2 -20 0 -36 4 -36 4 0 8 17 8 39 l0 38 62 6 c34 3
66 3 71 0 5 -3 6 -18 3 -34 -3 -16 -1 -29 4 -29 6 0 10 13 10 29 0 26 4 30 39
36 22 4 59 6 83 4 24 -1 50 1 58 4 8 4 29 8 45 11 17 2 -19 2 -80 0 -60 -3
-118 -7 -127 -10 -15 -5 -18 2 -18 43 0 75 8 91 44 96 l31 4 -33 1 -33 2 3 68
3 67 60 6 60 6 -65 2 c-36 1 -93 2 -127 1 l-63 -1 6 33 c20 109 16 102 64 110
55 9 65 1 63 -55 -2 -42 -2 -42 8 9 l10 52 64 7 c36 3 69 4 75 0 11 -7 14
-103 4 -129 -3 -9 -14 -16 -23 -16 -14 -1 -14 -2 2 -11 12 -7 17 -24 19 -62
l1 -52 6 55 6 55 55 7 c64 7 71 5 66 -25 -3 -12 -5 -39 -5 -59 -1 -34 -4 -37
-33 -41 l-33 -4 32 -1 32 -2 4 -67 3 -68 2 67 c2 60 4 67 25 71 l22 4 -23 2
c-23 1 -23 3 -17 59 4 31 11 61 15 66 5 4 30 11 56 14 38 4 50 1 61 -13 12
-18 13 -18 13 2 0 18 9 22 58 29 90 13 86 15 93 -46 l6 -55 1 57 2 57 44 6
c25 4 49 4 55 1 5 -4 13 -1 17 5 5 9 -9 11 -55 6 l-61 -5 6 62 c4 34 7 93 8
132 l1 69 53 6 c75 10 79 21 7 17 l-60 -3 -1 45 c-1 76 1 78 72 85 35 4 67 12
70 17 3 5 -5 7 -18 4 -12 -3 -44 -8 -70 -11 l-48 -6 -1 43 -2 43 -6 -40 c-5
-36 -9 -41 -41 -46 l-35 -6 33 -2 32 -1 0 -60 c0 -69 11 -62 -135 -80 -49 -7
-103 -14 -119 -16 l-29 -5 6 61 c3 34 8 64 10 67 3 2 27 5 54 6 l48 2 6 -45 6
-45 1 47 c2 50 -1 47 67 61 11 3 1 5 -22 6 -23 0 -44 7 -46 14 -3 7 -6 5 -6
-5 -1 -14 -10 -18 -40 -18 -22 0 -46 -3 -55 -6 -13 -5 -16 3 -18 42 -1 48 -1
48 -5 9 -3 -22 -7 -43 -11 -46 -4 -4 -31 -10 -61 -13 l-53 -7 4 31 c3 17 1 33
-4 36 -4 3 -8 -11 -8 -30 0 -34 -2 -36 -34 -36 -19 0 -37 -4 -40 -9 -4 -5 11
-7 35 -4 l40 6 -5 -54 -5 -54 11 51 c10 49 12 52 47 58 72 12 71 12 71 -58 0
-63 0 -64 -31 -70 -55 -11 -101 -8 -93 7 5 8 2 7 -9 -2 -10 -7 -36 -16 -60
-18 -60 -7 -59 -13 2 -13 l53 0 -6 -45 c-5 -29 -4 -45 3 -45 6 0 11 17 11 38
0 52 8 59 65 58 l50 -1 3 -46 3 -47 -48 -7 c-59 -8 -87 -11 -177 -20 l-69 -7
6 38 c4 22 7 47 7 57 0 9 8 17 18 18 15 0 15 1 -2 8 -10 4 -46 4 -79 -1 -33
-4 -62 -6 -64 -4 -2 2 1 33 7 69 11 63 13 66 43 70 l32 4 -32 1 c-31 2 -33 4
-32 40 2 59 13 86 39 94 23 7 23 7 -3 4 -25 -3 -28 0 -27 23 3 42 -2 49 -9 12
-7 -37 -1 -35 -116 -45 -33 -3 -87 -10 -120 -16 -91 -15 -88 -16 -83 35 3 25
2 45 -3 45 -5 0 -9 -20 -9 -45 0 -40 -3 -45 -22 -46 l-23 0 24 -10 c20 -8 22
-14 17 -40 -3 -17 -6 -44 -6 -59 0 -34 -8 -37 -104 -46 -73 -6 -74 -6 -79 17
-4 23 -4 23 -6 2 -1 -16 -8 -23 -23 -24 -18 -1 -19 -2 -5 -6 15 -4 17 -14 15
-66 l-3 -61 -40 -4 c-56 -5 -57 -12 -1 -12 29 0 45 -4 41 -10 -3 -5 -1 -10 4
-10 6 0 11 7 11 15 0 10 10 15 33 15 17 0 56 3 86 7 l53 6 -7 -54 c-4 -30 -10
-56 -14 -59 -3 -3 -7 -32 -8 -65 -4 -103 -2 -101 -89 -109 -42 -4 -77 -6 -79
-4 -1 2 0 34 4 73 l6 70 67 10 c37 5 69 13 72 16 3 3 -18 2 -47 -2 -97 -14
-96 -14 -91 34 l4 42 -11 -42 c-7 -31 -16 -43 -32 -46 -21 -4 -21 -4 2 -6 23
-1 24 -2 17 -68 -4 -38 -11 -72 -16 -77 -5 -5 -48 -12 -95 -14 l-85 -5 6 64
c4 35 9 66 11 69 3 3 35 10 71 17 l67 12 -71 -6 -71 -5 5 54 c2 29 6 54 7 56
2 2 25 7 52 12 l48 8 -51 1 -51 1 10 59 10 60 61 10 c60 10 59 10 -29 6 -180
-8 -267 -18 -251 -27 12 -7 14 -20 11 -56 l-5 -47 11 45 c6 25 14 48 17 51 4
4 42 10 85 13 l77 7 0 -48 c0 -26 -4 -54 -9 -61 -5 -9 -41 -15 -107 -18 -54
-2 -130 -8 -167 -12 -79 -10 -83 -7 -73 63 7 42 9 44 49 53 41 10 41 10 -23
10 -36 0 -85 -3 -110 -7 l-45 -8 64 -2 64 -1 -7 -31 c-3 -17 -6 -41 -6 -53 0
-19 -9 -24 -66 -35 -41 -9 -69 -10 -75 -4 -9 9 -4 74 15 203 3 19 8 58 11 85
3 28 10 73 15 100 5 28 12 71 15 98 3 26 10 45 16 42 5 -4 9 -2 9 4 0 5 -5 13
-10 16 -6 4 -8 10 -6 14 3 3 7 29 10 56 7 66 39 299 41 303 1 1 37 5 80 8 l78
6 -6 -47 c-9 -61 -12 -65 -55 -66 -20 -1 -48 -5 -62 -10 -16 -5 0 -6 43 -2
l68 5 -5 -38 -5 -39 10 37 c12 43 22 48 111 55 l67 6 -10 -39 c-13 -60 -9 -64
10 -9 17 47 20 50 62 57 24 4 57 10 72 12 l28 6 -6 -53 c-7 -59 10 -48 20 14
6 35 7 36 69 47 96 18 95 18 90 -30 l-3 -43 8 39 c4 21 14 42 21 46 21 13 -9
18 -55 9 -59 -12 -113 -11 -117 2 -2 7 -1 30 2 53 4 36 9 42 35 47 l30 7 -31
1 -32 1 10 39 c12 45 20 50 105 58 l63 6 0 -33 c0 -41 11 -33 12 8 1 29 5 32
50 41 27 6 63 11 79 11 29 0 30 -1 27 -42 -3 -39 -6 -44 -33 -49 l-30 -7 28
-1 c26 -1 27 -4 29 -53 l1 -53 6 50 c7 54 5 54 124 69 l47 6 0 -59 0 -59 -77
-10 c-43 -6 -96 -11 -118 -12 -22 0 -58 -5 -80 -10 -35 -8 -33 -9 24 -6 62 4
63 4 58 -20 -6 -31 9 -31 17 0 6 25 42 36 124 36 42 0 42 0 43 -37 2 -35 2
-35 6 -8 7 45 20 55 75 55 l49 0 -3 -52 c-2 -29 -6 -52 -10 -52 -4 1 -29 -2
-54 -7 -39 -8 -49 -6 -60 9 -12 16 -13 16 -14 0 0 -11 -10 -18 -32 -21 l-33
-4 34 -1 c31 -2 33 -4 28 -31 -3 -15 -9 -51 -13 -80 -6 -49 -8 -51 -39 -51
-18 0 -53 -3 -77 -6 l-45 -6 5 73 c2 41 6 75 7 77 2 2 25 7 52 12 l48 9 -52
-3 c-51 -3 -53 -2 -54 23 l-1 26 -7 -25 c-5 -19 -16 -27 -41 -31 l-35 -6 38
-2 39 -1 -7 -72 c-3 -39 -8 -75 -10 -78 -2 -4 0 -20 5 -36 8 -29 8 -29 9 -3 1
25 4 26 73 33 39 3 75 3 78 -1 4 -5 4 -30 1 -58 -7 -56 -4 -54 -103 -62 -38
-3 -68 -10 -68 -15 0 -5 8 -7 18 -4 9 2 45 8 80 11 l62 7 1 -59 c2 -57 2 -57
10 22 12 115 27 164 53 170 11 2 30 6 41 8 11 3 -2 5 -29 6 -41 1 -47 4 -42
18 4 9 9 39 12 67 2 28 8 54 12 57 12 12 110 21 116 11 3 -5 3 -39 -1 -75 -5
-57 -9 -67 -27 -70 -21 -4 -21 -5 2 -12 18 -6 22 -15 23 -49 l1 -41 10 46 c9
41 14 48 40 53 51 10 77 7 86 -11 9 -14 10 -14 16 5 6 18 15 22 49 22 23 0 52
3 65 6 21 6 22 4 21 -40 -1 -25 1 -49 4 -53 4 -3 8 5 8 18 1 13 2 29 4 34 1 6
3 17 3 26 2 20 88 35 108 18 10 -8 18 -7 29 5 13 12 13 16 3 17 -20 2 -19 2
-82 -5 l-58 -6 5 65 c2 36 7 68 10 72 4 3 29 8 56 11 l50 4 4 -63 3 -64 2 63
c2 67 2 67 65 76 l37 5 0 -69 c0 -65 -1 -69 -27 -79 -27 -10 -27 -10 -3 -8 24
2 25 0 24 -51 -1 -29 -3 -55 -5 -56 -2 -2 -26 -6 -52 -10 l-49 -6 7 31 c5 22
4 29 -4 25 -6 -4 -11 -17 -11 -30 0 -21 -6 -23 -97 -34 -54 -7 -118 -15 -142
-19 l-44 -6 6 36 c3 21 2 37 -3 37 -5 0 -10 -17 -12 -37 -3 -37 -5 -38 -48
-45 -58 -9 71 -2 148 8 l52 7 2 -64 1 -64 6 65 6 65 40 7 c76 13 88 11 83 -17
-3 -14 -1 -28 3 -31 5 -3 9 8 9 24 0 25 5 30 31 36 68 13 69 13 69 -63 0 -39
-4 -72 -8 -75 -5 -3 -60 -10 -123 -16 -63 -6 -123 -13 -134 -15 -11 -2 -38 -5
-60 -6 -36 -2 -35 -3 15 -8 44 -5 55 -9 54 -23 -1 -10 3 -18 8 -18 6 0 8 9 5
20 -5 21 0 24 75 34 29 3 40 1 48 -12 8 -15 9 -15 10 -1 0 17 38 29 88 29 23
0 24 -3 19 -35 -3 -19 -1 -37 4 -40 5 -4 9 13 9 39 0 38 3 45 23 49 l22 4 -22
2 c-22 1 -23 5 -23 71 0 45 4 70 11 70 8 0 8 4 2 13 -6 6 -7 34 -4 62 l6 50
50 12 50 12 -52 -5 -53 -6 0 49 c0 83 6 91 67 103 30 7 60 9 68 6 9 -3 15 -25
18 -58 l3 -53 2 56 c2 55 3 57 33 63 17 3 42 6 55 6 13 0 24 4 24 10 0 5 -6 8
-12 6 -7 -3 -32 -7 -56 -10 l-43 -6 6 52 c3 29 7 54 9 55 1 1 28 5 59 9 51 6
57 5 58 -12 0 -18 1 -18 8 1 5 13 25 24 57 32 l49 13 -45 -5 c-25 -3 -67 -7
-95 -10 -27 -3 -62 -7 -77 -10 l-26 -6 5 63 c3 35 7 64 8 65 1 2 29 6 63 9
l60 7 5 -29 4 -29 2 32 c1 24 6 33 24 37 12 3 -7 3 -43 0 -36 -2 -78 -7 -93
-10 l-29 -7 5 63 c3 34 7 64 9 66 3 2 32 7 66 10 l61 7 4 -54 3 -54 2 52 2 52
54 6 c30 4 58 5 63 2 5 -3 15 -2 23 4 19 11 10 12 -77 9 -43 -1 -63 2 -63 10
0 7 -6 5 -16 -4 -8 -9 -26 -16 -38 -16 -13 0 -37 -3 -54 -6 l-31 -6 -4 53 -3
54 -2 -51 -2 -50 -71 -10 -71 -10 6 60 c3 33 8 61 11 64 2 2 35 6 72 8 37 3
92 9 121 15 50 9 55 9 73 -12 19 -22 19 -22 19 -1 0 17 9 22 63 30 l62 10 -85
-4 c-47 -3 -109 -8 -138 -13 -33 -5 -52 -4 -52 2 0 6 -5 5 -13 -1 -7 -6 -48
-13 -92 -17 -44 -3 -97 -8 -117 -10 l-38 -5 7 47 c3 27 7 50 9 52 2 2 24 6 48
8 l45 5 4 -49 3 -48 2 46 c2 45 3 47 40 53 69 11 89 8 97 -16 7 -22 7 -22 12
-3 7 27 21 35 62 35 19 0 32 2 29 5 -3 3 -57 2 -119 -4 -86 -7 -116 -7 -121 2
-6 9 -8 9 -8 0 0 -8 -14 -13 -36 -13 -48 0 -287 -30 -294 -37 -3 -3 15 -3 40
-2 l45 4 3 -46 c3 -52 4 -52 -93 -64 l-50 -7 3 51 c3 39 8 51 20 51 13 0 13 2
-3 14 -21 15 -51 -1 -34 -18 10 -11 12 -50 3 -83 -4 -14 -16 -23 -33 -26 l-26
-4 28 -2 c26 -1 27 -3 28 -58 l2 -58 6 57 c3 31 9 59 12 62 3 4 36 9 73 13 60
5 66 4 67 -13 0 -18 1 -18 8 1 4 11 21 23 37 26 l29 7 -34 1 -34 1 6 45 c2 26
7 49 11 52 3 3 28 8 56 11 50 5 50 4 50 -24 0 -50 -11 -74 -34 -75 -20 0 -20
-1 -2 -8 11 -4 23 -16 27 -27 7 -18 8 -18 8 2 1 18 9 23 52 28 28 4 53 6 54 4
2 -2 1 -31 -2 -66 -6 -62 -6 -62 -37 -62 -17 0 -42 -3 -55 -7 -23 -6 -24 -5
-18 35 3 23 1 42 -4 42 -5 0 -9 -17 -9 -39 0 -42 7 -38 -110 -57 -14 -2 -41
-9 -60 -14 l-35 -9 33 3 c18 1 35 -1 38 -6 3 -4 15 -1 27 7 12 8 40 15 64 15
41 0 42 -1 46 -37 l4 -38 1 41 c2 38 5 42 33 48 71 14 78 10 82 -41 l3 -48 2
46 c2 51 13 59 77 59 42 0 55 -16 55 -70 l0 -47 -67 -12 c-50 -9 -68 -9 -73 0
-5 7 -9 8 -11 1 -2 -6 -31 -13 -64 -17 -33 -3 -105 -11 -160 -18 -89 -10 -95
-12 -55 -17 25 -3 50 -3 55 1 6 4 30 9 55 10 l45 4 3 -50 c1 -27 -1 -55 -5
-61 -5 -6 -29 -14 -55 -18 -40 -6 -47 -4 -51 11 -4 17 -5 17 -6 1 -1 -12 -10
-18 -28 -19 -24 -2 -25 -2 -5 -6 19 -4 22 -11 22 -53 0 -27 -4 -51 -10 -55 -5
-3 -39 -8 -74 -12 l-65 -6 1 39 c1 54 13 72 51 77 32 4 32 4 -5 5 l-37 2 4 43
c2 23 4 50 4 60 1 10 9 17 20 17 11 0 22 4 25 9 3 4 -6 6 -19 3 -24 -4 -25 -2
-25 50 0 53 1 55 33 66 28 10 25 10 -28 6 -33 -3 -69 -7 -80 -10 -11 -2 -33
-6 -50 -8 -16 -2 -55 -7 -86 -11 l-55 -7 4 64 c2 34 8 67 12 71 4 5 32 10 61
12 51 3 64 6 99 19 16 7 -74 -1 -127 -10 l-33 -6 0 45 c0 27 6 52 15 60 12 13
12 15 -4 20 -10 2 -25 1 -32 -4 -10 -6 -11 -9 -1 -9 13 0 16 -57 6 -97 -5 -18
-16 -23 -60 -29 -30 -3 -54 -11 -54 -16 0 -5 8 -7 18 -4 9 3 35 8 56 12 l39 7
-7 -69 c-3 -38 -7 -91 -9 -118 -2 -56 -5 -57 -109 -69 l-58 -7 2 40 c1 22 6
45 13 50 6 5 40 14 75 19 l65 10 -74 -5 -74 -5 7 47 c3 26 6 53 6 61 0 7 10
18 23 23 22 9 22 9 0 9 -12 1 -24 7 -26 14 -4 8 -6 7 -6 -4 -1 -11 -13 -16
-46 -18 -25 -1 -56 -6 -68 -11 -15 -6 1 -7 46 -3 l69 6 -7 -59 c-4 -32 -10
-61 -12 -64 -3 -3 -38 -10 -79 -15 l-75 -11 7 61 c4 33 12 63 18 67 7 5 7 8
-2 8 -8 0 -11 7 -8 18 3 9 8 33 11 52 11 65 14 70 53 71 20 1 51 5 67 9 18 5
2 6 -39 3 l-69 -6 6 24 c4 13 7 38 7 56 0 22 5 33 18 35 15 3 14 4 -3 9 -11 3
-33 2 -50 -2 l-30 -7 29 -1 c28 -1 29 -2 22 -47 -3 -26 -6 -53 -6 -60 0 -9
-13 -15 -37 -16 l-38 -1 34 -4 33 -4 -7 -47 c-10 -75 -12 -78 -63 -89 l-47
-11 44 2 45 1 -3 -55 c-1 -30 -6 -58 -10 -63 -4 -4 -42 -13 -85 -21 l-78 -13
7 61 c4 33 10 63 14 66 3 3 7 28 8 55 2 50 -9 43 -21 -15 -5 -23 -13 -27 -75
-38 -39 -8 -75 -11 -81 -7 -5 3 -10 2 -10 -3 0 -5 -21 -14 -47 -20 l-48 -11
47 5 46 5 -4 -43 -4 -43 11 35 c6 19 13 40 14 46 3 12 132 40 141 32 2 -3 1
-31 -2 -62 -6 -46 -11 -60 -28 -66 -17 -7 -18 -9 -3 -9 18 -1 20 -12 11 -59
-6 -28 -9 -30 -78 -40 -39 -5 -82 -10 -96 -11 -14 0 -38 -5 -55 -10 l-30 -10
37 2 c21 0 40 -1 43 -4 3 -3 2 -27 -1 -52 -7 -52 -7 -52 -107 -62 l-68 -7 6
34 c3 18 7 42 9 53 2 11 14 23 27 26 24 7 24 7 -3 8 -25 1 -26 3 -21 44 3 23
7 44 10 46 2 3 22 8 46 12 l42 6 -47 2 c-43 1 -48 3 -47 24 2 56 14 72 59 85
l45 12 -42 -5 c-39 -5 -43 -3 -44 17 -1 17 -2 19 -6 6 -5 -20 -22 -25 -102
-31 l-53 -4 4 69 c3 38 8 72 12 75 3 4 25 10 49 14 l42 6 -46 2 -47 1 5 48 c3
26 9 51 14 56 4 5 40 11 80 14 l72 5 -8 -49 c-9 -60 3 -54 13 7 7 42 9 44 47
48 l40 5 -41 5 -41 6 12 48 c15 57 15 58 62 67 l38 8 -42 1 c-23 0 -44 7 -46
14 -4 8 -6 9 -6 0z m-209 -150 c-9 -4 -10 -8 -2 -18 8 -9 8 -37 0 -96 -5 -46
-10 -102 -10 -126 0 -42 -14 -63 -30 -47 -8 8 14 250 25 282 2 6 10 12 17 11
10 0 10 -2 0 -6z m1276 -330 l3 -53 -43 0 c-24 0 -53 -3 -65 -6 -22 -6 -23 -3
-23 45 0 44 3 51 23 55 12 3 31 7 42 10 51 11 60 4 63 -51z m-138 -13 c0 -48
-1 -50 -27 -50 -16 0 -44 -3 -64 -6 l-35 -6 5 48 c5 44 9 49 36 55 17 4 42 7
58 8 26 1 27 -1 27 -49z m-1159 9 c6 -21 7 -22 8 -3 1 19 9 22 73 27 40 3 74
5 76 3 1 -2 0 -26 -3 -52 l-7 -49 -56 -3 c-32 -2 -61 -8 -67 -13 -7 -7 13 -8
59 -3 l68 7 -7 -44 c-4 -24 -9 -46 -11 -48 -2 -2 -38 -6 -79 -9 -42 -2 -77 -8
-80 -11 -2 -4 -6 -31 -10 -61 -3 -29 -8 -56 -10 -60 -2 -3 -13 -87 -25 -185
-11 -99 -25 -198 -30 -220 -5 -22 -11 -62 -14 -90 -3 -27 -9 -75 -15 -105 -5
-30 -12 -82 -15 -114 -7 -75 -16 -85 -16 -17 0 32 -4 50 -10 46 -17 -10 -11
32 7 50 13 14 14 18 3 25 -11 7 -11 14 -1 38 7 17 10 35 7 40 -3 4 4 16 15 25
19 16 18 44 -1 32 -18 -11 -19 13 -1 31 10 11 21 32 25 48 6 24 4 27 -13 21
-16 -5 -18 -2 -14 17 3 13 11 28 19 34 11 9 11 15 0 35 -10 20 -10 27 1 37 7
7 13 24 13 37 0 13 5 27 11 30 6 4 7 19 4 35 -3 16 -2 31 4 35 6 3 11 14 11
25 0 13 -5 17 -20 13 -24 -6 -26 3 -5 23 12 12 15 12 16 2 1 -7 6 7 13 32 9
32 9 50 2 64 -8 14 -8 20 2 23 19 7 15 61 -5 66 -10 2 -8 3 5 2 19 -2 22 2 22
36 0 61 23 180 34 176 6 -2 13 -14 17 -28z m1831 -19 c2 -5 1 -32 0 -59 l-4
-49 -51 -7 c-29 -4 -68 -9 -87 -11 -19 -2 -52 -5 -72 -9 l-38 -5 0 64 c0 63 0
64 31 70 70 14 79 10 81 -36 l1 -43 4 42 c4 36 7 42 31 46 54 8 100 7 104 -3z
m-2038 -45 c-4 -8 -8 -15 -10 -15 -2 0 -4 7 -4 15 0 8 4 15 10 15 5 0 7 -7 4
-15z m1497 -50 c-1 -27 -6 -53 -9 -56 -4 -4 -34 -10 -66 -14 l-59 -7 6 39 c4
21 7 48 7 60 0 23 25 32 90 29 l34 -1 -3 -50z m-137 36 c3 -4 3 -30 0 -58 l-6
-50 -60 -9 -59 -10 2 53 c3 65 6 70 49 76 63 7 69 7 74 -2z m-1371 -26 c-3 -9
-8 -14 -10 -11 -3 3 -2 9 2 15 9 16 15 13 8 -4z m-280 -15 c-3 -12 -8 -19 -11
-16 -5 6 5 36 12 36 2 0 2 -9 -1 -20z m281 -42 c-2 -49 -27 -158 -36 -158 -4
0 -8 -18 -8 -39 0 -22 -4 -43 -10 -46 -14 -9 -12 13 9 138 15 86 32 137 45
137 0 0 0 -15 0 -32z m2046 -32 l0 -53 -70 -10 -70 -9 0 52 0 53 48 6 c26 4
52 8 57 10 30 10 35 3 35 -49z m-2339 -42 c-6 -23 -11 -56 -11 -73 0 -16 -4
-33 -10 -36 -5 -3 -10 0 -10 7 1 32 24 172 31 188 8 20 8 -51 0 -86z m993 44
c-3 -24 -7 -48 -9 -54 -4 -13 -141 -41 -151 -31 -4 3 -2 28 2 54 l9 48 55 12
c98 20 100 19 94 -29z m1196 -17 c0 -28 -4 -52 -9 -55 -5 -4 -31 -9 -56 -13
l-48 -6 6 54 c4 30 7 55 7 56 0 3 44 10 73 12 26 1 27 -1 27 -48z m-122 -23
l-3 -53 -54 -3 -53 -3 6 53 c3 29 6 54 6 56 0 1 23 2 51 2 l50 0 -3 -52z
m-278 -12 c0 -60 -1 -62 -77 -65 l-51 -2 5 43 c8 72 1 66 106 76 14 2 17 -7
17 -52z m-1483 -28 c-3 -7 -5 -2 -5 12 0 14 2 19 5 13 2 -7 2 -19 0 -25z
m1630 -105 l-3 -68 -68 -8 c-37 -5 -70 -6 -72 -4 -3 2 -2 34 2 70 7 74 8 74
91 76 l53 1 -3 -67z m-154 -10 c-3 -38 -6 -69 -7 -70 -1 -1 -24 -5 -51 -8 -28
-4 -54 -8 -60 -9 -5 0 -10 7 -9 17 0 9 1 41 2 71 2 60 1 59 98 64 l32 2 -5
-67z m-1812 4 c-10 -9 -11 -8 -5 6 3 10 9 15 12 12 3 -3 0 -11 -7 -18z m-291
-65 c0 -15 -2 -15 -10 -2 -13 20 -13 33 0 25 6 -3 10 -14 10 -23z m720 -23 c0
-11 -4 -18 -10 -14 -5 3 -7 12 -3 20 7 21 13 19 13 -6z m-40 1 c0 -5 -5 -10
-11 -10 -5 0 -7 5 -4 10 3 6 8 10 11 10 2 0 4 -4 4 -10z m-629 -32 c11 -11 19
-28 19 -37 1 -14 2 -14 14 2 7 9 16 17 18 17 10 0 16 -40 8 -45 -16 -10 4 -50
46 -90 35 -34 41 -44 33 -63 -6 -15 -5 -21 1 -17 13 8 7 -29 -7 -47 -6 -7 -11
-35 -11 -61 0 -75 -3 -75 -76 18 -22 28 -55 66 -74 85 -19 19 -40 47 -47 61
-18 34 -17 165 0 179 9 8 15 8 20 0 9 -15 25 -12 25 5 0 21 9 19 31 -7z m34 3
c3 -5 1 -12 -5 -16 -5 -3 -10 1 -10 9 0 18 6 21 15 7z m-148 -38 c-3 -10 -5
-4 -5 12 0 17 2 24 5 18 2 -7 2 -21 0 -30z m738 -12 c-4 -23 -10 -41 -15 -41
-10 0 -6 62 4 79 13 21 18 4 11 -38z m-135 35 c0 -3 -4 -8 -10 -11 -5 -3 -10
-1 -10 4 0 6 5 11 10 11 6 0 10 -2 10 -4z m-522 -241 c76 -84 142 -179 142
-204 0 -15 -12 -94 -26 -177 -14 -82 -28 -166 -31 -186 -3 -21 -9 -38 -12 -38
-4 0 -8 -21 -10 -46 -1 -25 -6 -56 -11 -69 -5 -14 -10 -42 -11 -62 -1 -21 -6
-43 -11 -50 -5 -7 -9 -22 -8 -35 4 -42 0 -58 -12 -55 -7 1 -11 -5 -9 -13 2 -8
5 -37 7 -65 2 -38 -1 -53 -14 -63 -14 -10 -14 -14 -4 -21 11 -7 11 -9 -2 -14
-9 -4 -16 -2 -16 3 0 6 -5 10 -10 10 -11 0 -95 75 -162 145 -21 22 -38 48 -38
58 0 10 -4 15 -10 12 -5 -3 -10 -2 -10 4 0 16 23 65 35 73 6 5 5 8 -2 8 -7 0
-13 7 -13 15 0 8 -6 15 -13 15 -11 0 -10 20 4 103 10 56 23 120 28 142 23 93
71 315 81 380 21 132 31 175 40 170 4 -3 11 7 15 23 l7 27 24 -30 c14 -16 37
-43 52 -60z m-134 -20 c-8 -44 -21 -125 -30 -180 -8 -54 -19 -106 -23 -115 -5
-8 -16 -51 -25 -95 -10 -44 -24 -107 -32 -140 -8 -33 -22 -106 -33 -162 -18
-99 -18 -101 1 -90 10 7 16 18 13 25 -3 7 0 10 5 7 16 -10 12 -33 -8 -44 -9
-5 -16 -13 -14 -18 6 -13 -12 -13 -30 1 -17 12 -17 18 6 112 14 54 36 151 51
214 14 63 32 144 40 180 8 36 19 94 25 130 20 124 56 267 66 258 1 -2 -4 -39
-12 -83z m392 33 c4 -6 3 -8 -4 -4 -5 3 -13 0 -15 -6 -3 -8 -6 -6 -6 5 -1 19
14 23 25 5z m19 -48 c-3 -10 0 -22 6 -26 7 -4 9 -3 5 4 -3 6 -2 13 4 17 11 7
14 -13 11 -57 -1 -16 3 -28 10 -28 8 0 10 -14 6 -45 -3 -32 -1 -45 7 -42 6 2
12 19 14 37 l4 34 19 -24 c10 -14 19 -19 19 -12 0 22 20 12 20 -10 0 -19 2
-20 10 -8 7 11 9 -3 6 -45 -7 -109 -19 -195 -26 -195 -8 0 -27 21 -105 115
-22 26 -45 53 -50 59 -17 19 -41 61 -40 71 6 62 31 153 48 167 23 21 40 14 32
-12z m355 16 c0 -3 -4 -8 -10 -11 -5 -3 -10 -1 -10 4 0 6 5 11 10 11 6 0 10
-2 10 -4z m1290 -51 c0 -64 -6 -69 -102 -83 -58 -9 -58 -9 -59 17 l-2 26 -4
-26 c-4 -25 -8 -27 -75 -33 -38 -4 -71 -6 -73 -4 -1 2 0 31 3 64 l4 62 46 6
c24 3 58 6 75 6 28 0 29 -2 24 -35 -3 -19 -2 -35 3 -35 5 0 10 17 12 38 3 34
6 38 38 43 19 4 52 7 73 8 l37 1 0 -55z m-1720 10 c0 -8 -4 -15 -10 -15 -5 0
-7 7 -4 15 4 8 8 15 10 15 2 0 4 -7 4 -15z m280 -49 c0 -3 -4 -8 -10 -11 -5
-3 -10 -1 -10 4 0 6 5 11 10 11 6 0 10 -2 10 -4z m-110 -16 c0 -5 -4 -10 -10
-10 -5 0 -10 5 -10 10 0 6 5 10 10 10 6 0 10 -4 10 -10z m1372 -55 c2 -3 0
-31 -5 -64 l-9 -59 -60 -1 c-32 0 -64 -4 -70 -7 -8 -5 -9 3 -5 26 4 18 7 47 7
66 0 31 2 33 43 37 77 7 94 7 99 2z m-167 -92 c-5 -36 -10 -43 -29 -43 -13 0
-51 -3 -85 -6 l-61 -7 0 49 c0 27 4 54 8 60 4 6 43 15 87 20 91 10 93 9 80
-73z m-1420 -63 c-10 -61 -20 -109 -22 -106 -3 2 3 52 11 110 9 59 16 109 16
113 0 3 3 4 6 0 3 -3 -2 -55 -11 -117z m138 -19 c79 -93 95 -118 92 -140 -3
-14 -16 -105 -30 -201 -14 -96 -32 -218 -41 -270 -8 -52 -22 -153 -30 -224
-14 -124 -28 -175 -42 -161 -7 7 -8 12 -10 57 -2 20 -7 26 -21 25 -12 -1 -17
-6 -13 -15 3 -10 0 -13 -9 -10 -8 3 -13 10 -12 16 2 10 -21 21 -54 26 -9 2
-21 12 -27 24 -6 11 -15 21 -21 21 -14 -1 -26 39 -14 47 7 4 6 10 -1 19 -14
17 -2 88 13 78 6 -4 8 2 5 15 -4 12 -3 22 2 22 10 0 18 70 9 76 -4 2 -2 19 6
38 11 25 11 36 3 44 -9 9 -9 12 -1 12 6 0 9 9 6 20 -3 11 0 55 6 98 6 42 13
95 15 117 3 22 15 101 26 175 11 74 23 154 27 178 3 24 9 39 13 35 5 -4 51
-59 103 -122z m2327 74 c0 -45 -3 -55 -17 -57 -10 0 -29 -2 -43 -3 -14 -2 -42
-6 -63 -10 l-38 -7 3 58 3 59 40 6 c22 3 57 7 78 8 l37 1 0 -55z m-2162 13
c-1 -48 -19 -118 -30 -118 -6 0 -8 10 -4 23 3 12 9 46 12 75 7 57 24 72 22 20z
m1992 -33 c0 -50 -2 -55 -22 -55 -13 0 -40 -3 -60 -6 -38 -7 -38 -6 -38 27 0
75 9 83 93 88 26 1 27 0 27 -54z m-430 -34 c0 -28 -3 -52 -7 -54 -5 -3 -32 -8
-62 -12 -53 -7 -54 -6 -48 17 4 12 7 37 7 55 0 33 8 37 83 42 26 1 27 -1 27
-48z m587 -19 c7 -4 10 -25 8 -52 -2 -25 -4 -55 -4 -66 -1 -19 -10 -23 -63
-32 -35 -6 -88 -13 -118 -16 -30 -4 -68 -8 -83 -11 l-28 -6 7 78 c4 43 7 79 8
80 1 1 28 5 59 9 l57 7 1 -39 2 -39 6 35 c6 37 -1 34 131 59 3 0 10 -3 17 -7z
m-296 -44 c2 -16 -2 -132 -4 -135 -1 0 -28 -4 -60 -8 l-58 -7 2 75 c2 74 2 76
28 80 57 9 91 7 92 -5z m-1661 -42 c0 -3 -4 -8 -10 -11 -5 -3 -10 -1 -10 4 0
6 5 11 10 11 6 0 10 -2 10 -4z m-235 -143 c-9 -65 -19 -134 -21 -153 -2 -19
-6 -46 -10 -60 -3 -14 -7 -43 -9 -65 -2 -34 -10 -78 -39 -225 -3 -14 -7 -63
-10 -110 -6 -105 -15 -150 -30 -150 -12 0 -4 93 27 300 9 58 19 132 22 165 4
33 15 116 27 185 11 69 22 142 25 163 3 20 10 37 15 37 6 0 7 11 3 28 -5 21
-4 24 5 15 10 -9 9 -38 -5 -130z m-295 50 c-11 -17 -11 -17 -6 0 3 10 7 33 8
50 l1 32 4 -32 c2 -18 -1 -41 -7 -50z m520 37 c0 -11 -7 -20 -15 -20 -13 0
-14 4 -5 20 6 11 13 20 15 20 3 0 5 -9 5 -20z m-189 -56 c-6 -28 -9 -32 -10
-14 -1 30 11 79 16 64 2 -6 -1 -28 -6 -50z m99 6 c0 -5 -5 -10 -11 -10 -5 0
-7 5 -4 10 3 6 8 10 11 10 2 0 4 -4 4 -10z m1450 -84 c0 -36 -5 -68 -10 -71
-6 -4 -36 -9 -67 -12 l-56 -6 6 39 c4 21 7 52 7 67 0 32 24 45 83 46 l37 1 0
-64z m-1555 -15 c-10 -48 -20 -44 -16 6 2 30 7 41 13 35 6 -6 7 -24 3 -41z
m94 12 c0 -28 -17 -77 -19 -58 0 6 -3 27 -6 48 -5 29 -2 37 10 37 11 0 16 -9
15 -27z m41 -14 c0 -5 -4 -9 -10 -9 -5 0 -10 7 -10 16 0 8 5 12 10 9 6 -3 10
-10 10 -16z m36 -37 c-11 -10 -14 3 -8 33 l7 30 3 -28 c2 -16 1 -31 -2 -35z
m-519 1 c-3 -10 -5 -4 -5 12 0 17 2 24 5 18 2 -7 2 -21 0 -30z m485 -25 c-7
-7 -12 -8 -12 -2 0 14 12 26 19 19 2 -3 -1 -11 -7 -17z m-500 -80 c-2 -29 -8
-60 -14 -68 -6 -10 -7 6 -3 45 6 55 11 75 19 75 1 0 1 -24 -2 -52z m432 37 c3
-8 1 -15 -4 -15 -6 0 -10 7 -10 15 0 8 2 15 4 15 2 0 6 -7 10 -15z m92 -109
c-7 -95 -24 -279 -32 -332 -4 -27 -8 -31 -25 -27 -18 5 -20 11 -15 39 3 19 9
51 12 72 6 36 6 37 -10 15 -17 -22 -36 -31 -36 -15 0 4 12 20 26 35 14 16 23
31 20 34 -3 3 -1 14 4 24 8 13 6 19 -8 22 -14 4 -14 6 6 12 18 6 22 15 22 51
0 23 4 53 9 66 6 16 5 29 -4 42 -8 10 -11 25 -8 34 4 10 2 13 -5 8 -7 -4 -12
-5 -12 -1 0 9 44 23 53 18 5 -3 6 -46 3 -97z m729 47 c-11 -94 -6 -89 -101
-97 -48 -4 -87 -6 -89 -4 -1 2 2 33 7 70 l10 67 42 5 c59 8 98 13 119 15 17 1
18 -5 12 -56z m158 -5 c-3 -35 -7 -64 -8 -66 -2 -2 -35 -6 -74 -11 l-72 -7 7
65 c3 36 8 69 10 72 2 3 35 7 73 8 l69 2 -5 -63z m-1843 -11 c0 -6 -9 -2 -20
8 -11 10 -20 23 -20 28 0 6 9 2 20 -8 11 -10 20 -23 20 -28z m770 28 c0 -8 -4
-15 -10 -15 -5 0 -10 7 -10 15 0 8 5 15 10 15 6 0 10 -7 10 -15z m150 -46 c0
-5 -4 -9 -10 -9 -5 0 -10 7 -10 16 0 8 5 12 10 9 6 -3 10 -10 10 -16z m-503
-51 c2 -17 0 -19 -7 -8 -5 8 -6 18 -4 22 8 12 10 10 11 -14z m-447 -9 c0 -5
-4 -9 -10 -9 -5 0 -10 7 -10 16 0 8 5 12 10 9 6 -3 10 -10 10 -16z m230 -123
c0 -6 -20 10 -45 34 -25 24 -45 49 -45 54 0 6 20 -10 45 -34 25 -24 45 -49 45
-54z m-150 24 c0 -5 -2 -10 -4 -10 -3 0 -8 5 -11 10 -3 6 -1 10 4 10 6 0 11
-4 11 -10z m345 -11 c-6 -33 -15 -36 -15 -6 0 15 4 27 9 27 6 0 8 -10 6 -21z
m445 7 c0 -3 -4 -8 -10 -11 -5 -3 -10 -1 -10 4 0 6 5 11 10 11 6 0 10 -2 10
-4z m0 -56 c0 -11 -7 -20 -15 -20 -17 0 -18 2 -9 24 9 23 24 20 24 -4z m815
-22 c-17 -114 -12 -106 -63 -112 -99 -12 -137 -11 -133 5 2 8 6 40 9 71 l4 57
47 6 c25 4 51 8 56 10 6 2 27 4 48 4 l39 1 -7 -42z m-1624 9 c-10 -9 -11 -8
-5 6 3 10 9 15 12 12 3 -3 0 -11 -7 -18z m79 -7 c-13 -8 -12 -10 3 -10 17 0
21 -10 17 -40 -1 -11 2 -10 13 4 9 12 16 15 21 8 3 -6 1 -14 -5 -18 -8 -5 -8
-9 1 -14 7 -4 13 -23 15 -41 2 -19 3 -38 4 -43 1 -4 10 -6 20 -3 12 3 22 -1
26 -11 5 -14 7 -14 15 -2 8 13 10 13 10 -1 0 -9 7 -22 15 -29 13 -11 13 -14 0
-27 -8 -8 -15 -26 -15 -41 -1 -15 -7 -37 -14 -50 -12 -23 -13 -23 -109 62 -99
88 -130 123 -121 137 2 5 5 28 6 52 0 42 2 44 28 43 22 0 26 -4 22 -21 -5 -18
-4 -18 12 -6 9 8 15 20 12 26 -5 14 12 35 29 35 5 0 3 -5 -5 -10z m-110 -46
c0 -8 -5 -12 -10 -9 -6 4 -8 11 -5 16 9 14 15 11 15 -7z m707 -21 c-3 -10 -5
-4 -5 12 0 17 2 24 5 18 2 -7 2 -21 0 -30z m13 -43 c0 -5 -2 -10 -4 -10 -3 0
-8 5 -11 10 -3 6 -1 10 4 10 6 0 11 -4 11 -10z m912 -45 c-6 -67 -9 -72 -58
-79 -26 -3 -64 -6 -85 -6 l-39 0 0 44 c0 24 6 48 13 54 7 6 42 13 77 15 96 5
95 5 92 -28z m-732 -19 c0 -8 -4 -18 -10 -21 -5 -3 -10 3 -10 14 0 12 5 21 10
21 6 0 10 -6 10 -14z m-30 0 c0 -3 -4 -8 -10 -11 -5 -3 -10 -1 -10 4 0 6 5 11
10 11 6 0 10 -2 10 -4z m-140 -62 c0 -10 -6 -14 -14 -11 -11 4 -16 -4 -19 -29
-4 -34 -4 -34 -3 3 1 25 5 37 14 36 6 -2 12 2 12 7 0 6 2 10 5 10 3 0 5 -7 5
-16z m163 -34 c-7 -27 -23 -15 -23 17 0 21 3 23 14 14 8 -7 12 -21 9 -31z
m721 -12 c-4 -24 -10 -46 -13 -50 -4 -5 -42 -11 -85 -14 l-77 -7 6 39 c10 62
11 63 67 67 122 8 109 12 102 -35z m-1224 -4 c0 -8 -4 -12 -10 -9 -5 3 -10 10
-10 16 0 5 5 9 10 9 6 0 10 -7 10 -16z m217 -16 c-3 -8 -6 -5 -6 6 -1 11 2 17
5 13 3 -3 4 -12 1 -19z m-193 -22 c-3 -9 -10 -16 -14 -16 -4 0 -5 -11 -3 -24
3 -13 0 -27 -6 -30 -6 -4 -11 -14 -11 -21 0 -11 6 -12 24 -5 13 5 26 7 29 4 2
-3 8 11 11 31 8 40 27 42 36 4 4 -15 17 -28 36 -34 17 -6 38 -16 48 -24 15
-13 15 -16 1 -37 -9 -13 -12 -24 -8 -25 5 0 -2 -4 -14 -9 -26 -11 -30 -38 -8
-46 16 -7 22 -88 7 -98 -4 -2 -49 34 -99 80 -86 80 -91 87 -81 110 8 18 8 37
0 72 -11 52 -3 72 29 72 11 0 19 5 19 12 0 6 2 9 5 6 3 -3 3 -13 -1 -22z m467
2 c9 -17 9 -23 0 -26 -6 -2 -8 -9 -5 -14 4 -7 2 -8 -5 -4 -6 4 -9 11 -6 16 3
5 1 11 -5 15 -13 8 -13 35 0 35 5 0 15 -10 21 -22z m-621 -22 c0 -3 -4 -8 -10
-11 -5 -3 -10 -1 -10 4 0 6 5 11 10 11 6 0 10 -2 10 -4z m1522 -58 c-2 -35 -7
-66 -10 -69 -4 -4 -42 -10 -86 -14 l-78 -7 6 54 c3 29 6 61 6 70 0 17 23 22
125 26 l41 2 -4 -62z m-180 47 c4 -5 -9 -126 -15 -131 -1 -1 -38 -5 -81 -9
l-79 -7 7 63 c4 35 9 65 10 67 2 1 23 5 47 8 24 3 46 8 48 10 6 6 57 5 63 -1z
m-735 -117 c-3 -8 -6 -5 -6 6 -1 11 2 17 5 13 3 -3 4 -12 1 -19z m906 -30 c-2
-5 -3 -35 -3 -67 l0 -60 -70 -7 c-38 -3 -70 -10 -70 -14 0 -4 10 -6 23 -4 12
2 41 5 65 8 l42 4 0 -56 c0 -32 -4 -63 -9 -70 -5 -9 -38 -16 -91 -19 l-82 -6
6 29 c3 16 7 46 8 67 1 25 7 37 18 38 10 0 11 2 3 6 -15 6 -17 90 -3 127 7 20
17 26 52 29 62 6 113 3 111 -5z m-189 -75 c-4 -38 -7 -69 -8 -69 0 -1 -36 -4
-78 -7 l-78 -5 0 27 c0 16 3 49 6 75 l7 46 79 0 79 0 -7 -67z m-984 -28 c0 -5
-5 -3 -10 5 -5 8 -10 20 -10 25 0 6 5 3 10 -5 5 -8 10 -19 10 -25z m-326 -32
c-6 -65 -34 -231 -45 -267 -5 -16 -9 -40 -9 -53 0 -15 -4 -22 -11 -17 -12 7
-11 14 21 184 12 63 24 129 26 145 12 70 24 76 18 8z m2006 -28 c0 -64 -7 -85
-28 -85 -14 0 -13 -2 1 -13 15 -10 17 -22 11 -69 l-7 -56 -63 -4 -64 -3 0 63
0 62 53 2 52 2 -50 3 -50 4 5 72 5 72 60 5 c33 3 63 4 68 2 4 -2 7 -27 7 -57z
m-162 43 c8 -11 8 -126 -1 -134 -1 -1 -40 -6 -85 -9 l-84 -8 7 69 c3 38 7 70
8 71 2 1 32 6 67 11 36 5 68 10 71 11 4 0 11 -5 17 -11z m-548 -102 l0 -65
-42 -6 c-24 -4 -61 -7 -83 -8 -44 -2 -43 -5 -31 85 8 51 4 49 114 56 l42 2 0
-64z m-1004 -42 c-4 -20 -10 -34 -12 -31 -3 3 -2 21 2 41 3 21 9 35 11 32 3
-3 2 -21 -1 -42z m1184 -73 c0 -20 -4 -41 -8 -48 -4 -7 -43 -15 -87 -19 l-80
-6 3 49 4 50 71 10 c40 5 78 7 85 5 7 -2 12 -20 12 -41z m-190 -20 c0 -28 -3
-52 -7 -54 -5 -3 -42 -8 -83 -12 l-75 -7 3 56 4 55 51 4 c120 8 107 13 107
-42z m-1002 8 c-6 -4 -8 -11 -5 -15 3 -5 -1 -45 -9 -88 -7 -43 -11 -83 -8 -87
3 -5 0 -9 -5 -9 -14 0 -14 29 0 127 14 101 17 112 29 93 6 -9 5 -17 -2 -21z
m262 4 c0 -19 -3 -24 -10 -17 -6 6 -8 18 -4 27 9 24 14 21 14 -10z m0 -53 c0
-5 -5 -10 -11 -10 -5 0 -7 5 -4 10 3 6 8 10 11 10 2 0 4 -4 4 -10z m907 -18
c18 -11 5 -142 -15 -142 -14 0 -14 -1 0 -12 12 -10 15 -25 11 -70 -6 -66 -10
-68 -117 -68 l-69 0 7 38 c3 20 6 46 6 58 0 18 9 22 68 32 l67 10 -69 -5 c-68
-5 -69 -5 -63 19 3 12 9 46 13 75 l6 52 47 6 c25 4 53 8 61 9 27 6 35 6 47 -2z
m-180 -83 c-3 -39 -8 -74 -11 -77 -3 -3 -39 -7 -81 -10 l-74 -5 6 69 c3 38 8
71 10 74 4 4 84 16 132 19 24 1 24 0 18 -70z m-737 52 c0 -6 -4 -13 -10 -16
-5 -3 -10 1 -10 9 0 9 5 16 10 16 6 0 10 -4 10 -9z m-238 -141 c-5 -13 -11
-19 -14 -14 -3 5 -1 20 4 34 13 31 22 12 10 -20z m-42 8 c0 -13 -5 -30 -10
-38 -7 -11 -10 -5 -10 23 0 20 5 37 10 37 6 0 10 -10 10 -22z m1374 4 c2 -4 1
-32 -2 -62 l-7 -55 -45 -6 -45 -6 43 -1 c41 -2 42 -3 42 -36 0 -18 -3 -48 -6
-65 -6 -30 -8 -31 -60 -31 -29 0 -55 -3 -57 -7 -3 -5 20 -8 51 -8 l57 0 -3
-65 c-2 -36 -7 -68 -10 -71 -4 -4 -40 -10 -79 -13 l-73 -7 0 38 c0 68 11 113
29 114 13 1 13 2 -1 6 -30 8 -20 132 11 134 12 1 12 2 -3 6 -17 4 -18 12 -12
65 3 33 8 64 12 69 6 11 151 12 158 1z m-369 -60 c-11 -82 -9 -79 -88 -85 -39
-3 -74 -3 -76 -2 -2 2 0 31 4 64 l7 60 60 3 c34 2 69 4 80 5 17 2 18 -3 13
-45z m-757 8 c-7 -10 -14 -18 -15 -16 -6 6 9 36 18 36 5 0 4 -9 -3 -20z m-214
-15 c-3 -7 -1 -22 3 -32 5 -10 6 -31 2 -48 -6 -28 -7 -27 -8 13 0 23 -5 42
-10 42 -4 0 -6 11 -3 25 2 14 8 22 13 20 4 -3 6 -12 3 -20z m-14 -61 c0 -8 -5
-12 -10 -9 -6 4 -8 11 -5 16 9 14 15 11 15 -7z m230 -5 c0 -16 -21 -140 -27
-159 -4 -12 -6 -12 -15 4 -10 18 -4 138 8 158 8 12 34 10 34 -3z m930 -67 l0
-59 -57 -10 -58 -10 53 -2 53 -1 -3 -72 -3 -73 -45 -6 -45 -6 43 -1 42 -2 2
-52 1 -53 6 50 6 50 45 7 c25 3 60 7 78 7 l32 1 0 -69 0 -68 -82 -6 c-60 -5
-84 -3 -90 6 -5 8 -8 8 -8 1 0 -6 -33 -16 -72 -22 l-73 -11 73 5 73 5 -7 -73
c-3 -40 -8 -76 -10 -79 -2 -3 -31 -7 -66 -8 -35 -1 -71 -4 -82 -7 -17 -6 -18
1 -13 147 4 85 6 155 7 157 0 1 19 3 43 4 l42 1 -42 4 -41 4 5 62 c6 83 7 85
45 90 l33 4 -35 1 -35 2 3 64 c4 74 1 72 120 75 l62 1 0 -58z m-194 -14 c-3
-34 -7 -63 -9 -64 -2 -2 -35 -7 -75 -12 l-72 -8 1 40 c2 77 10 90 59 97 25 3
58 7 74 7 l29 2 -7 -62z m-965 22 c6 0 5 -8 -1 -21 -10 -17 -19 -65 -22 -116
-2 -25 -18 -12 -18 14 0 41 23 160 28 141 2 -10 8 -18 13 -18z m19 -45 c0 -8
-2 -15 -4 -15 -2 0 -6 7 -10 15 -3 8 -1 15 4 15 6 0 10 -7 10 -15z m10 -45 c0
-11 -2 -20 -4 -20 -2 0 -6 9 -9 20 -3 11 -1 20 4 20 5 0 9 -9 9 -20z m922 -92
c-4 -62 -6 -68 -27 -68 -12 0 -49 -3 -83 -6 l-61 -7 10 39 c4 22 9 53 9 70 0
31 0 31 73 41 39 5 75 6 78 3 3 -3 4 -35 1 -72z m-926 15 c-1 -24 -4 -43 -8
-43 -5 0 -8 12 -8 26 0 14 -5 34 -10 44 -8 15 -7 19 8 17 14 -1 18 -10 18 -44z
m161 25 c-3 -8 -6 -5 -6 6 -1 11 2 17 5 13 3 -3 4 -12 1 -19z m8 -90 c-2 -18
-3 -43 -4 -56 0 -13 -5 -21 -10 -18 -5 4 -8 14 -6 24 2 9 4 32 4 50 1 17 5 32
10 32 4 0 7 -15 6 -32z m915 -385 c0 -92 -2 -93 -92 -93 l-80 0 6 31 c3 17 6
46 6 65 0 37 8 40 103 43 l57 1 0 -47z"/>
<path d="M1290 4183 c0 -10 -3 -43 -6 -73 -4 -30 -3 -52 0 -49 9 9 20 139 12
139 -3 0 -6 -8 -6 -17z"/>
<path d="M591 3451 c-8 -14 -7 -22 4 -31 9 -7 18 -10 22 -6 3 3 1 6 -6 6 -7 0
-9 9 -5 25 7 30 -1 33 -15 6z"/>
<path d="M391 3474 c0 -11 3 -14 6 -6 3 7 2 16 -1 19 -3 4 -6 -2 -5 -13z"/>
<path d="M380 3441 c0 -5 -3 -18 -6 -28 -5 -16 -4 -16 10 1 18 23 20 36 6 36
-5 0 -10 -4 -10 -9z"/>
<path d="M253 2809 c-7 -43 -6 -55 5 -57 18 -5 31 9 15 15 -17 6 -16 18 1 35
11 12 11 18 1 38 -12 23 -13 21 -22 -31z"/>
<path d="M418 2457 c-4 -19 -1 -27 8 -27 15 0 16 6 5 35 -7 17 -8 17 -13 -8z"/>
<path d="M451 2454 c0 -11 3 -14 6 -6 3 7 2 16 -1 19 -3 4 -6 -2 -5 -13z"/>
<path d="M611 2614 c0 -11 3 -14 6 -6 3 7 2 16 -1 19 -3 4 -6 -2 -5 -13z"/>
<path d="M287 2265 c-4 -8 -2 -17 3 -20 6 -4 10 3 10 14 0 25 -6 27 -13 6z"/>
<path d="M620 1840 c0 -5 5 -10 11 -10 5 0 7 5 4 10 -3 6 -8 10 -11 10 -2 0
-4 -4 -4 -10z"/>
<path d="M1915 1180 c-3 -5 1 -10 10 -10 9 0 13 5 10 10 -3 6 -8 10 -10 10 -2
0 -7 -4 -10 -10z"/>
<path d="M2053 4685 c0 -22 2 -30 4 -17 2 12 2 30 0 40 -3 9 -5 -1 -4 -23z"/>
<path d="M2372 4700 c0 -14 2 -19 5 -12 2 6 2 18 0 25 -3 6 -5 1 -5 -13z"/>
<path d="M2738 4703 c6 -2 18 -2 25 0 6 3 1 5 -13 5 -14 0 -19 -2 -12 -5z"/>
<path d="M2780 4694 c0 -8 5 -12 10 -9 6 3 10 10 10 16 0 5 -4 9 -10 9 -5 0
-10 -7 -10 -16z"/>
<path d="M2609 4696 c-2 -2 -38 -6 -79 -9 -100 -8 -98 -8 -70 -16 23 -7 25
-12 23 -57 -2 -38 0 -43 6 -24 5 14 9 37 10 51 1 15 8 30 17 33 26 10 114 7
114 -4 0 -5 5 -10 10 -10 6 0 10 6 10 14 0 8 10 17 23 19 12 2 4 5 -19 6 -22
0 -43 -1 -45 -3z"/>
<path d="M3572 4673 c-2 -20 -8 -23 -49 -24 -36 0 -43 -3 -28 -9 11 -4 30 -6
41 -3 12 2 25 -1 29 -7 4 -6 4 -56 0 -110 l-7 -99 -37 -6 c-61 -10 -72 -25
-13 -18 52 6 55 5 55 -32 0 -59 -5 -82 -15 -83 -112 -14 -131 -14 -123 -1 6
11 5 12 -6 2 -7 -7 -29 -13 -48 -13 -19 0 -32 -3 -29 -6 4 -3 54 -5 112 -5
l106 1 0 -54 0 -53 -62 -11 -63 -10 64 5 64 5 -5 -413 c-2 -228 -1 -382 3
-344 3 39 7 198 8 355 2 481 12 752 27 768 18 18 18 26 -1 19 -12 -5 -15 10
-18 81 -1 48 -4 77 -5 65z"/>
<path d="M2310 4659 c-20 -7 -18 -8 12 -4 24 4 38 1 41 -7 4 -10 8 -10 14 -2
4 7 19 14 33 17 14 2 3 4 -25 5 -27 0 -61 -4 -75 -9z"/>
<path d="M2782 4640 c0 -19 2 -27 5 -17 2 9 2 25 0 35 -3 9 -5 1 -5 -18z"/>
<path d="M2912 4650 c0 -14 2 -19 5 -12 2 6 2 18 0 25 -3 6 -5 1 -5 -13z"/>
<path d="M2215 4651 c-40 -5 -45 -7 -26 -13 18 -5 22 -11 17 -25 -13 -33 -24
-103 -16 -103 5 0 12 19 16 43 4 23 9 45 10 50 1 4 2 14 3 22 0 8 9 15 19 15
9 0 24 5 32 10 8 5 11 9 5 8 -5 -1 -32 -4 -60 -7z"/>
<path d="M2632 4625 c0 -16 2 -22 5 -12 2 9 2 23 0 30 -3 6 -5 -1 -5 -18z"/>
<path d="M3315 4640 c-27 -4 -41 -8 -30 -9 30 -4 70 -1 102 9 27 8 27 8 3 8
-14 -1 -47 -4 -75 -8z"/>
<path d="M2123 4633 c9 -2 23 -2 30 0 6 3 -1 5 -18 5 -16 0 -22 -2 -12 -5z"/>
<path d="M1870 4623 c0 -7 -12 -13 -27 -14 -16 -1 -39 -5 -53 -10 -17 -6 -8
-6 29 -3 48 6 53 5 48 -12 -3 -11 -9 -38 -12 -61 -6 -41 -8 -43 -43 -44 -34
-2 -35 -2 -7 -6 17 -3 35 -9 42 -14 7 -6 12 -6 15 1 2 7 19 16 38 20 l35 9
-37 -2 c-33 -3 -37 0 -33 18 2 11 7 37 10 58 5 29 11 37 28 38 20 1 20 2 2 6
-11 3 -23 10 -27 17 -6 8 -8 7 -8 -1z"/>
<path d="M2363 4595 c0 -22 2 -30 4 -17 2 12 2 30 0 40 -3 9 -5 -1 -4 -23z"/>
<path d="M1938 4613 c7 -3 16 -2 19 1 4 3 -2 6 -13 5 -11 0 -14 -3 -6 -6z"/>
<path d="M3699 4528 c-2 -130 -9 -911 -9 -923 0 -5 2 -23 4 -40 2 -16 -1 -36
-7 -42 -6 -9 -6 -13 2 -13 8 0 10 -58 6 -212 -4 -117 -5 -249 -4 -293 3 -187
4 -527 0 -530 -2 -2 -3 -59 -2 -125 1 -67 -2 -119 -6 -117 -9 6 -8 -150 1
-258 3 -33 10 -154 16 -270 9 -189 8 -275 -3 -428 -3 -34 1 -53 12 -64 13 -14
13 -17 -3 -29 -14 -10 -17 -21 -13 -43 4 -17 3 -33 -2 -35 -5 -3 -8 -69 -7
-146 0 -105 4 -140 13 -140 9 0 13 -21 14 -72 0 -40 2 -99 3 -130 2 -37 -1
-56 -8 -55 -6 1 -12 -13 -14 -32 -3 -31 -2 -33 12 -22 14 12 16 7 16 -48 0
-35 4 -61 10 -61 9 0 44 19 69 37 2 1 4 34 3 73 0 38 3 70 9 70 5 0 9 -6 10
-12 5 -66 9 -102 12 -105 2 -2 51 32 108 74 l104 78 -1 55 c-1 30 -1 190 -2
355 -1 165 -2 338 -4 385 -1 47 -3 185 -3 308 0 123 -3 213 -7 200 -3 -13 -6
-70 -7 -127 -2 -170 -12 -108 -16 93 -2 113 1 202 8 228 10 40 11 41 18 18 8
-28 11 78 10 355 0 99 3 189 8 200 4 11 5 33 0 48 -11 40 -24 552 -24 970 0
196 -3 357 -7 357 -3 0 -7 79 -8 176 l-1 177 -26 21 c-14 11 -67 49 -117 84
l-91 63 -8 -28 c-4 -15 -7 -62 -6 -103 1 -115 0 -119 -12 -97 -7 11 -8 56 -3
125 8 123 8 116 -5 120 -5 2 -11 -9 -14 -25 -4 -27 -4 -27 -6 4 0 17 -5 35
-11 38 -6 4 -10 -28 -11 -87z m150 -312 c1 -43 -3 -66 -8 -60 -12 12 -14 33
-11 114 3 86 18 44 19 -54z m-103 16 c-11 -10 -15 4 -8 28 l7 25 3 -23 c2 -13
1 -26 -2 -30z m16 -14 c-7 -7 -12 -26 -13 -42 0 -26 -2 -28 -8 -11 -5 11 -6
27 -3 35 8 19 26 39 31 34 3 -2 -1 -10 -7 -16z m5 -118 c0 -16 -6 -31 -14 -34
-9 -4 -13 5 -13 29 0 23 5 35 13 35 8 0 14 -12 14 -30z m229 -27 c-10 -10 -19
5 -10 18 6 11 8 11 12 0 2 -7 1 -15 -2 -18z m-233 -124 c-4 -4 -7 11 -7 34 2
71 8 85 11 28 2 -30 1 -57 -4 -62z m-46 54 c-3 -10 -5 -4 -5 12 0 17 2 24 5
18 2 -7 2 -21 0 -30z m12 -80 c1 -13 -3 -23 -9 -23 -5 0 -10 19 -9 43 0 32 2
37 9 22 5 -11 9 -30 9 -42z m24 -478 c-3 -40 -16 -64 -26 -48 -3 4 -1 31 4 58
4 28 9 77 10 110 l2 60 7 -70 c4 -38 5 -88 3 -110z m-13 -113 c0 -21 -2 -24
-10 -12 -13 20 -13 53 0 45 6 -3 10 -18 10 -33z m127 -1734 c-3 -7 -5 -2 -5
12 0 14 2 19 5 13 2 -7 2 -19 0 -25z m-115 -222 c-8 -16 -11 -7 -10 44 l0 65
10 -44 c6 -29 6 -51 0 -65z m48 23 c0 -16 -4 -29 -8 -29 -4 0 -8 15 -8 34 0
19 4 32 8 30 4 -3 8 -18 8 -35z m219 -94 c0 -27 -4 -59 -8 -70 -5 -12 -8 15
-9 70 0 58 3 83 8 70 5 -11 9 -42 9 -70z m-222 -7 c-2 -13 -4 -3 -4 22 0 25 2
35 4 23 2 -13 2 -33 0 -45z m200 -190 c-2 -13 -4 -3 -4 22 0 25 2 35 4 23 2
-13 2 -33 0 -45z m3 -68 c0 -11 -4 -20 -9 -20 -5 0 -7 9 -4 20 3 11 7 20 9 20
2 0 4 -9 4 -20z m-233 -92 c-3 -8 -6 -5 -6 6 -1 11 2 17 5 13 3 -3 4 -12 1
-19z m-60 -100 c-3 -8 -6 -5 -6 6 -1 11 2 17 5 13 3 -3 4 -12 1 -19z m58 2 c3
-5 1 -10 -4 -10 -6 0 -11 5 -11 10 0 6 2 10 4 10 3 0 8 -4 11 -10z m1 -260
c-4 -140 -15 -173 -17 -49 -1 46 -2 93 -2 104 0 44 3 65 13 65 5 0 8 -48 6
-120z"/>
<path d="M1695 4590 c-17 -6 -17 -7 4 -13 13 -3 32 -2 44 2 20 8 20 8 -4 13
-14 2 -34 2 -44 -2z"/>
<path d="M3595 4590 c-3 -6 1 -7 9 -4 18 7 21 14 7 14 -6 0 -13 -4 -16 -10z"/>
<path d="M1623 4573 c9 -2 25 -2 35 0 9 3 1 5 -18 5 -19 0 -27 -2 -17 -5z"/>
<path d="M2460 4550 c-23 -7 -23 -8 -3 -9 14 -1 23 -9 26 -23 3 -17 5 -14 6
10 0 17 0 32 -1 31 -2 -1 -14 -5 -28 -9z"/>
<path d="M2518 4553 c12 -2 32 -2 45 0 12 2 2 4 -23 4 -25 0 -35 -2 -22 -4z"/>
<path d="M3503 4543 c9 -2 25 -2 35 0 9 3 1 5 -18 5 -19 0 -27 -2 -17 -5z"/>
<path d="M2233 4523 c9 -2 25 -2 35 0 9 3 1 5 -18 5 -19 0 -27 -2 -17 -5z"/>
<path d="M1690 4495 c0 -8 2 -15 4 -15 2 0 6 7 10 15 3 8 1 15 -4 15 -6 0 -10
-7 -10 -15z"/>
<path d="M1615 4459 c-24 -7 -20 -7 18 -4 46 4 47 4 47 -23 0 -15 -4 -44 -9
-64 -5 -21 -5 -36 -1 -33 5 3 11 24 15 48 10 59 21 75 52 80 16 2 1 4 -32 4
-33 0 -73 -3 -90 -8z"/>
<path d="M1455 4439 l-30 -7 29 -1 c27 -1 28 -3 23 -36 -3 -20 -2 -33 2 -30
10 6 20 75 12 79 -3 1 -19 -1 -36 -5z"/>
<path d="M1538 4443 c6 -2 18 -2 25 0 6 3 1 5 -13 5 -14 0 -19 -2 -12 -5z"/>
<path d="M2181 4434 c0 -11 3 -14 6 -6 3 7 2 16 -1 19 -3 4 -6 -2 -5 -13z"/>
<path d="M2760 4410 c0 -5 5 -10 11 -10 5 0 7 5 4 10 -3 6 -8 10 -11 10 -2 0
-4 -4 -4 -10z"/>
<path d="M2761 4374 c0 -11 3 -14 6 -6 3 7 2 16 -1 19 -3 4 -6 -2 -5 -13z"/>
<path d="M920 4355 c0 -3 23 -36 51 -72 28 -37 53 -73 56 -80 7 -17 23 -17 23
1 0 7 -7 27 -15 42 -8 16 -15 25 -15 21 0 -5 -7 -2 -15 7 -8 8 -15 19 -15 25
0 6 -4 11 -8 11 -5 0 -15 11 -22 25 -12 21 -40 35 -40 20z"/>
<path d="M2471 4344 c0 -11 3 -14 6 -6 3 7 2 16 -1 19 -3 4 -6 -2 -5 -13z"/>
<path d="M1868 4333 c7 -3 16 -2 19 1 4 3 -2 6 -13 5 -11 0 -14 -3 -6 -6z"/>
<path d="M3647 4268 c-4 -16 -12 -28 -18 -28 -6 0 -7 -5 -4 -10 10 -17 37 18
33 42 -3 21 -4 21 -11 -4z"/>
<path d="M3633 4185 c0 -8 7 -15 15 -15 12 0 12 3 2 15 -7 8 -13 15 -15 15 -1
0 -2 -7 -2 -15z"/>
<path d="M1600 4173 l-45 -11 41 -1 42 -1 -8 -35 c-4 -19 -4 -35 0 -35 4 0 11
15 14 34 6 33 10 35 54 41 71 10 72 12 7 16 -33 2 -80 -1 -105 -8z"/>
<path d="M2752 4130 c0 -19 2 -27 5 -17 2 9 2 25 0 35 -3 9 -5 1 -5 -18z"/>
<path d="M3410 4130 c0 -5 5 -10 10 -10 6 0 10 5 10 10 0 6 -4 10 -10 10 -5 0
-10 -4 -10 -10z"/>
<path d="M1920 4114 l-55 -13 50 2 50 2 -2 -45 -1 -45 11 48 c6 27 16 47 24
47 20 0 16 16 -4 16 -10 1 -43 -5 -73 -12z"/>
<path d="M2033 4123 c9 -2 25 -2 35 0 9 3 1 5 -18 5 -19 0 -27 -2 -17 -5z"/>
<path d="M693 4105 c-3 -9 -3 -18 -1 -21 3 -3 8 4 11 16 6 23 -1 27 -10 5z"/>
<path d="M672 4058 c-17 -17 -15 -28 4 -28 8 0 12 5 8 11 -3 6 0 15 7 20 8 5
9 9 4 9 -6 0 -16 -5 -23 -12z"/>
<path d="M3380 4009 l-35 -6 33 -2 c26 -1 32 -5 33 -23 0 -23 0 -23 9 -2 6 16
21 23 59 28 29 4 56 4 61 1 6 -3 10 -1 10 5 0 11 -105 10 -170 -1z"/>
<path d="M3268 3978 c5 -18 7 -19 10 -6 2 9 15 19 30 21 22 3 20 4 -10 6 -33
1 -36 -1 -30 -21z"/>
<path d="M649 3938 c-7 -23 -5 -38 5 -38 6 0 12 9 13 20 1 11 -2 20 -8 20 -5
0 -9 -1 -10 -2z"/>
<path d="M3411 3924 c0 -11 3 -14 6 -6 3 7 2 16 -1 19 -3 4 -6 -2 -5 -13z"/>
<path d="M3320 3911 c-12 -8 -10 -17 10 -60 l24 -51 -28 -29 c-23 -24 -28 -39
-30 -92 -2 -35 1 -69 6 -76 6 -7 3 -23 -8 -45 l-18 -33 -7 30 c-4 17 -7 25 -8
18 0 -6 -18 -14 -38 -16 l-38 -4 38 -1 c35 -2 37 -3 37 -38 0 -19 4 -33 9 -29
5 3 15 -21 22 -52 7 -32 16 -65 20 -74 5 -10 3 -24 -6 -35 -20 -27 -18 -78 5
-123 l19 -39 -26 -26 -25 -26 -39 31 c-22 17 -39 35 -39 40 0 14 -36 10 -49
-5 -17 -20 0 -51 53 -98 41 -36 41 -36 38 -101 -2 -38 1 -68 7 -72 7 -4 11 3
11 17 1 21 2 21 11 5 8 -13 7 -24 -5 -42 -9 -13 -16 -34 -16 -45 0 -11 -8 -32
-17 -46 -14 -22 -14 -29 -4 -46 7 -11 15 -31 17 -44 2 -13 6 -35 8 -48 2 -13
0 -42 -6 -64 -11 -45 -24 -52 -100 -52 l-48 0 0 65 c0 41 4 65 11 65 8 0 8 4
0 14 -9 11 -20 11 -68 0 -32 -7 -75 -13 -98 -14 -22 0 -58 -4 -80 -10 -38 -9
-38 -9 13 -4 l52 5 1 -43 2 -43 6 40 c6 38 8 40 51 47 25 4 58 10 73 12 l28 6
-3 -67 -3 -68 -45 -7 c-25 -4 -57 -9 -72 -12 -25 -5 -28 -2 -29 22 l-1 27 -7
-25 c-6 -21 -16 -27 -66 -37 l-60 -12 60 2 c59 2 60 2 66 -28 l7 -30 1 32 c1
29 4 32 51 42 76 16 87 14 98 -16 l10 -28 1 27 c1 26 3 27 64 30 81 4 90 -9
81 -127 l-7 -83 -63 -32 c-34 -18 -67 -30 -72 -27 -5 4 -8 29 -8 58 l1 52 40
4 c56 6 57 13 1 13 -43 0 -48 2 -43 20 3 11 1 23 -4 26 -5 3 -9 -6 -9 -19 0
-22 -6 -25 -67 -34 -45 -7 -72 -7 -80 0 -9 6 -13 6 -13 -2 0 -7 -4 -10 -8 -7
-5 3 -22 1 -38 -4 -29 -8 -29 -8 9 -9 l37 -1 0 -44 0 -44 -52 -10 c-50 -10
-50 -10 -13 -9 57 1 68 -8 63 -53 -2 -21 0 -36 4 -34 5 3 8 25 8 48 0 43 0 44
40 50 22 3 52 3 65 0 17 -4 25 -2 25 6 0 9 -17 11 -65 8 l-65 -6 0 39 c0 45
12 53 98 64 l52 6 1 -98 c1 -54 4 -89 6 -78 11 43 24 47 55 19 15 -15 28 -34
28 -42 0 -29 25 -4 37 38 18 62 33 73 33 24 0 -72 -8 -84 -53 -84 -22 0 -37
-3 -33 -7 4 -4 22 -6 41 -4 32 2 34 1 43 -41 l10 -43 2 60 c2 68 11 57 30 -37
10 -52 14 -58 36 -58 26 0 47 31 26 38 -7 2 -12 18 -11 35 l1 32 14 -34 c19
-43 15 -62 -16 -78 -21 -10 -22 -13 -7 -19 23 -8 47 13 47 42 0 12 5 26 10 29
6 3 10 23 10 43 0 25 -3 32 -9 23 -5 -7 -6 -22 -4 -32 3 -10 0 -19 -5 -19 -6
0 -17 27 -24 60 -7 36 -15 55 -20 47 -5 -7 -8 0 -8 19 0 16 5 35 11 41 11 11
2 63 -12 63 -10 0 -12 44 -3 78 4 13 14 22 25 22 11 0 19 4 19 9 0 6 -12 9
-27 8 -22 -2 -28 3 -35 33 -7 26 -6 42 6 67 16 34 22 114 9 127 -21 20 -2 149
30 208 13 23 17 43 12 55 -13 32 -12 166 2 211 8 23 12 46 9 51 -3 5 -6 39 -7
76 -1 37 -7 79 -14 94 -12 26 -13 127 -1 205 3 23 0 52 -9 72 -8 19 -10 32 -6
29 5 -2 12 2 15 10 3 8 11 14 17 13 6 -2 16 11 21 27 5 17 12 37 14 45 4 12 6
12 14 1 10 -17 18 102 8 127 -6 16 -7 16 -7 0 -1 -26 -26 -22 -41 7 -14 27
-26 30 -50 16z m7 -653 c-3 -7 -5 -2 -5 12 0 14 2 19 5 13 2 -7 2 -19 0 -25z
m23 -44 c0 -8 -4 -12 -10 -9 -5 3 -10 13 -10 21 0 8 5 12 10 9 6 -3 10 -13 10
-21z m-24 -341 c-10 -10 -19 5 -10 18 6 11 8 11 12 0 2 -7 1 -15 -2 -18z m-46
-578 c0 -8 -4 -17 -10 -20 -6 -4 -10 5 -10 20 0 15 4 24 10 20 6 -3 10 -12 10
-20z"/>
<path d="M1920 3870 c-8 -4 -62 -14 -120 -21 -58 -7 -93 -15 -78 -17 24 -3 27
-8 31 -50 l3 -47 2 46 c2 55 5 56 104 66 l70 6 -7 -59 c-9 -68 0 -72 10 -4 3
25 8 52 11 62 6 20 -6 29 -26 18z"/>
<path d="M1973 3863 c9 -2 23 -2 30 0 6 3 -1 5 -18 5 -16 0 -22 -2 -12 -5z"/>
<path d="M3508 3863 c7 -3 16 -2 19 1 4 3 -2 6 -13 5 -11 0 -14 -3 -6 -6z"/>
<path d="M3225 3849 c-22 -4 -62 -11 -90 -15 -37 -5 -45 -8 -30 -14 11 -4 23
-18 26 -31 7 -24 7 -24 8 3 1 28 8 32 79 43 l42 7 0 -48 c0 -56 7 -56 11 1 2
22 7 43 12 46 16 11 -17 16 -58 8z"/>
<path d="M1410 3823 c0 -7 -12 -13 -27 -14 -25 0 -23 -3 13 -14 14 -4 -1 -122
-17 -142 -7 -8 -33 -13 -67 -13 -30 0 -52 -3 -49 -7 4 -3 32 -5 63 -4 l56 2
-7 -53 c-9 -63 2 -60 13 3 6 34 12 45 32 50 22 6 22 7 4 8 -30 1 -33 8 -23 49
4 20 11 54 14 75 5 33 9 37 38 38 l32 2 -30 4 c-16 3 -33 10 -37 16 -6 9 -8 9
-8 0z"/>
<path d="M1577 3818 c-12 -8 8 -13 28 -8 6 2 28 6 50 11 38 7 38 7 -13 6 -30
-1 -59 -5 -65 -9z"/>
<path d="M1528 3813 c6 -2 18 -2 25 0 6 3 1 5 -13 5 -14 0 -19 -2 -12 -5z"/>
<path d="M1308 3793 c6 -2 18 -2 25 0 6 3 1 5 -13 5 -14 0 -19 -2 -12 -5z"/>
<path d="M1582 3755 c0 -16 2 -22 5 -12 2 9 2 23 0 30 -3 6 -5 -1 -5 -18z"/>
<path d="M930 3750 c0 -5 5 -10 11 -10 5 0 7 5 4 10 -3 6 -8 10 -11 10 -2 0
-4 -4 -4 -10z"/>
<path d="M3412 3720 c0 -14 2 -19 5 -12 2 6 2 18 0 25 -3 6 -5 1 -5 -13z"/>
<path d="M3260 3723 c-3 -7 -39 -14 -94 -18 -87 -5 -131 -15 -68 -15 21 0 32
-6 35 -17 4 -15 5 -15 6 -2 1 17 39 29 94 29 29 0 30 0 24 -47 -3 -33 -2 -42
5 -30 5 10 8 39 6 65 -2 26 -5 42 -8 35z"/>
<path d="M1572 3700 c0 -14 2 -19 5 -12 2 6 2 18 0 25 -3 6 -5 1 -5 -13z"/>
<path d="M1911 3691 c-1 -30 1 -32 12 -18 6 9 28 18 47 20 29 3 28 4 -7 3 -30
-1 -44 3 -47 14 -2 8 -4 0 -5 -19z"/>
<path d="M2033 3703 c9 -2 25 -2 35 0 9 3 1 5 -18 5 -19 0 -27 -2 -17 -5z"/>
<path d="M3488 3703 c12 -2 30 -2 40 0 9 3 -1 5 -23 4 -22 0 -30 -2 -17 -4z"/>
<path d="M1735 3670 l-40 -7 40 0 c22 -1 54 3 70 7 l30 8 -30 -1 c-16 0 -48
-3 -70 -7z"/>
<path d="M1520 3649 l-45 -6 42 -1 c30 -2 43 -7 46 -19 4 -15 5 -16 6 -2 1 12
17 20 59 27 l57 10 -60 -1 c-33 -1 -80 -5 -105 -8z"/>
<path d="M2395 3620 l-40 -6 37 -5 c40 -5 83 4 57 12 -8 3 -32 2 -54 -1z"/>
<path d="M3648 3612 c-10 -2 -18 -8 -18 -13 0 -11 11 -11 30 1 18 11 11 18
-12 12z"/>
<path d="M1728 3587 c-3 -19 -2 -25 4 -19 6 6 8 18 6 28 -3 14 -5 12 -10 -9z"/>
<path d="M2303 3603 c9 -2 25 -2 35 0 9 3 1 5 -18 5 -19 0 -27 -2 -17 -5z"/>
<path d="M2020 3580 c-25 -4 -78 -10 -119 -14 -83 -7 -107 -16 -43 -16 33 0
42 -4 43 -17 0 -14 2 -15 6 -3 9 23 21 28 87 35 34 4 70 11 81 16 24 9 6 9
-55 -1z"/>
<path d="M2840 3555 c0 -19 2 -35 4 -35 2 0 6 16 8 35 2 19 0 35 -4 35 -4 0
-8 -16 -8 -35z"/>
<path d="M891 3564 c0 -11 3 -14 6 -6 3 7 2 16 -1 19 -3 4 -6 -2 -5 -13z"/>
<path d="M2552 3550 c0 -14 2 -19 5 -12 2 6 2 18 0 25 -3 6 -5 1 -5 -13z"/>
<path d="M3478 3563 c12 -2 30 -2 40 0 9 3 -1 5 -23 4 -22 0 -30 -2 -17 -4z"/>
<path d="M3111 3549 c-35 -4 -66 -11 -70 -15 -3 -4 13 -4 36 0 34 5 42 3 46
-11 4 -17 5 -17 6 0 1 11 9 17 26 17 14 0 25 5 25 10 0 6 -1 9 -2 9 -2 -1 -32
-5 -67 -10z"/>
<path d="M1700 3539 c-23 -6 -23 -7 -3 -8 12 -1 24 -9 26 -18 4 -16 5 -16 6
-1 0 9 9 18 19 20 15 3 14 4 -3 9 -11 3 -31 2 -45 -2z"/>
<path d="M1778 3543 c6 -2 18 -2 25 0 6 3 1 5 -13 5 -14 0 -19 -2 -12 -5z"/>
<path d="M901 3514 c0 -11 3 -14 6 -6 3 7 2 16 -1 19 -3 4 -6 -2 -5 -13z"/>
<path d="M1510 3519 c-45 -6 -45 -6 -7 -7 34 -2 37 -4 38 -34 2 -32 2 -32 6
-5 5 32 11 35 79 47 l49 8 -60 -2 c-33 0 -80 -4 -105 -7z"/>
<path d="M1338 3508 c-13 -3 -44 -6 -70 -7 -27 -1 -48 -5 -48 -9 0 -4 28 -5
63 -1 34 3 65 4 69 2 3 -2 5 -29 3 -61 -2 -31 -2 -46 1 -32 20 96 22 99 67
102 l42 3 -52 5 c-29 3 -62 2 -75 -2z"/>
<path d="M2540 3493 c0 -6 -12 -14 -27 -16 l-28 -4 28 -2 c24 -1 27 -5 27 -38
0 -55 -10 -83 -29 -83 -14 -1 -14 -2 2 -14 9 -7 18 -24 18 -37 1 -20 2 -19 8
6 5 25 12 31 41 36 l35 6 -39 2 c-30 1 -37 4 -32 17 3 9 6 36 6 60 0 35 4 44
18 45 13 0 14 2 2 6 -8 3 -18 11 -22 17 -6 8 -8 8 -8 -1z"/>
<path d="M1712 3440 c0 -19 2 -27 5 -17 2 9 2 25 0 35 -3 9 -5 1 -5 -18z"/>
<path d="M3493 3443 c9 -2 25 -2 35 0 9 3 1 5 -18 5 -19 0 -27 -2 -17 -5z"/>
<path d="M3395 3430 c3 -5 12 -7 20 -3 21 7 19 13 -6 13 -11 0 -18 -4 -14 -10z"/>
<path d="M2018 3423 c7 -3 16 -2 19 1 4 3 -2 6 -13 5 -11 0 -14 -3 -6 -6z"/>
<path d="M1865 3410 l-30 -6 33 -5 c18 -3 35 -2 38 2 7 12 -9 16 -41 9z"/>
<path d="M1938 3413 c6 -2 18 -2 25 0 6 3 1 5 -13 5 -14 0 -19 -2 -12 -5z"/>
<path d="M1780 3400 l-35 -7 32 -2 c17 0 35 4 38 9 3 6 5 9 3 9 -2 -1 -19 -5
-38 -9z"/>
<path d="M1613 3387 c-85 -8 -93 -11 -93 -30 0 -19 1 -19 13 -4 8 11 35 18 91
23 l79 7 -5 -26 c-3 -15 -1 -24 3 -21 5 3 9 11 9 19 0 8 7 18 16 23 28 15 -11
18 -113 9z"/>
<path d="M3272 3360 c0 -19 2 -27 5 -17 2 9 2 25 0 35 -3 9 -5 1 -5 -18z"/>
<path d="M3401 3340 c-1 -25 -2 -73 -1 -107 1 -50 -2 -63 -17 -72 -10 -6 -12
-11 -5 -11 7 0 13 -14 13 -32 l1 -33 7 30 c4 20 14 31 31 36 24 7 24 7 3 8
-21 1 -23 6 -23 65 0 53 3 65 18 69 15 4 15 5 0 6 -12 1 -18 12 -21 44 l-4 42
-2 -45z"/>
<path d="M1275 3363 c-27 -2 -54 -8 -58 -13 -5 -4 22 -5 59 -2 l67 5 -6 -49
c-4 -31 -3 -42 3 -29 5 11 9 30 9 43 1 12 8 25 17 29 13 5 13 7 2 14 -7 5 -20
8 -28 7 -8 -1 -37 -3 -65 -5z"/>
<path d="M1428 3363 c12 -2 30 -2 40 0 9 3 -1 5 -23 4 -22 0 -30 -2 -17 -4z"/>
<path d="M1692 3300 c0 -14 2 -19 5 -12 2 6 2 18 0 25 -3 6 -5 1 -5 -13z"/>
<path d="M3463 3303 c9 -2 25 -2 35 0 9 3 1 5 -18 5 -19 0 -27 -2 -17 -5z"/>
<path d="M3551 3294 c0 -11 3 -14 6 -6 3 7 2 16 -1 19 -3 4 -6 -2 -5 -13z"/>
<path d="M2520 3245 c0 -14 2 -25 4 -25 2 0 6 11 8 25 3 14 1 25 -3 25 -5 0
-9 -11 -9 -25z"/>
<path d="M3552 3235 c0 -16 0 -35 -1 -41 -1 -7 -22 -16 -48 -22 l-48 -10 43 1
c56 1 73 20 62 67 -9 34 -9 34 -8 5z"/>
<path d="M3262 3210 c0 -19 2 -27 5 -17 2 9 2 25 0 35 -3 9 -5 1 -5 -18z"/>
<path d="M3550 3080 c0 -68 -1 -70 -25 -70 -14 0 -25 -4 -25 -10 0 -5 11 -10
25 -10 25 0 26 -2 23 -57 -3 -58 -3 -58 -38 -64 l-35 -6 35 -4 35 -4 1 -60 c1
-35 -3 -63 -10 -68 -8 -6 -8 -10 2 -14 8 -3 12 -26 12 -64 0 -49 -3 -59 -17
-60 -61 -2 -82 -19 -25 -19 l42 0 0 -55 0 -54 -50 -7 c-69 -9 -72 -22 -5 -16
l55 4 0 -131 0 -130 -32 4 -33 5 33 -12 c23 -8 32 -17 32 -34 0 -12 3 -25 8
-28 4 -2 7 229 7 515 0 285 -3 519 -7 519 -5 0 -8 -31 -8 -70z"/>
<path d="M3392 3045 c0 -16 2 -22 5 -12 2 9 2 23 0 30 -3 6 -5 -1 -5 -18z"/>
<path d="M1470 3003 c0 -15 -35 -21 -185 -28 -66 -4 -124 -10 -129 -15 -6 -6
17 -7 58 -3 l68 6 -6 -69 c-3 -45 -2 -60 3 -44 5 14 9 42 10 62 1 48 20 58
105 58 l66 0 1 -57 c1 -32 3 -47 6 -33 13 87 14 90 33 90 11 0 20 5 20 11 0 6
-7 9 -15 5 -8 -3 -19 2 -24 12 -6 9 -11 12 -11 5z"/>
<path d="M3392 2970 c0 -19 2 -27 5 -17 2 9 2 25 0 35 -3 9 -5 1 -5 -18z"/>
<path d="M3458 2993 c6 -2 18 -2 25 0 6 3 1 5 -13 5 -14 0 -19 -2 -12 -5z"/>
<path d="M3631 2964 c0 -11 3 -14 6 -6 3 7 2 16 -1 19 -3 4 -6 -2 -5 -13z"/>
<path d="M3380 2844 c0 -8 5 -12 10 -9 6 4 8 11 5 16 -9 14 -15 11 -15 -7z"/>
<path d="M3636 2847 c3 -10 9 -15 12 -12 3 3 0 11 -7 18 -10 9 -11 8 -5 -6z"/>
<path d="M3073 2828 c-16 -6 -16 -7 2 -9 11 -1 27 -2 35 -1 8 0 39 2 68 3 28
1 52 6 52 10 0 10 -131 7 -157 -3z"/>
<path d="M1415 2824 c-6 -2 -37 -8 -70 -13 -56 -9 -55 -9 23 -4 81 5 82 5 83
-18 l1 -24 7 25 c6 22 14 26 61 31 53 6 52 6 -20 7 -41 0 -80 -2 -85 -4z"/>
<path d="M2931 2823 c-1 -8 -16 -13 -43 -13 -23 0 -39 -2 -37 -4 8 -8 92 -6
149 3 l55 10 -57 -3 c-34 -2 -59 2 -62 8 -3 7 -5 6 -5 -1z"/>
<path d="M3638 2763 c3 -32 5 -73 4 -92 -1 -33 -1 -33 15 -11 12 17 13 27 4
46 -9 20 -8 24 5 24 11 0 14 9 12 34 -1 19 -5 33 -9 30 -4 -2 -9 3 -13 11 -13
34 -22 11 -18 -42z"/>
<path d="M2180 2783 c0 -30 9 -27 15 6 2 11 0 21 -6 21 -5 0 -9 -12 -9 -27z"/>
<path d="M2610 2782 l-45 -12 43 5 43 5 -2 -60 c-1 -33 1 -63 4 -67 4 -3 8 17
8 45 1 29 2 58 3 64 0 7 15 15 31 19 l30 5 -35 5 c-19 2 -55 -2 -80 -9z"/>
<path d="M2931 2754 c0 -11 3 -14 6 -6 3 7 2 16 -1 19 -3 4 -6 -2 -5 -13z"/>
<path d="M1442 2730 c0 -19 2 -27 5 -17 2 9 2 25 0 35 -3 9 -5 1 -5 -18z"/>
<path d="M2177 2713 c-4 -3 -7 -28 -7 -55 l0 -48 -34 0 c-19 0 -37 -4 -40 -8
-2 -4 11 -6 30 -4 38 5 37 6 34 -73 -2 -63 7 -55 17 15 7 46 12 55 33 61 25 7
25 7 -3 8 -28 1 -28 1 -23 56 5 56 4 60 -7 48z"/>
<path d="M1251 2694 c-1 -18 -11 -23 -63 -32 -61 -10 -61 -11 -10 -6 33 3 59
0 68 -7 9 -7 14 -8 14 -1 0 6 12 13 28 15 l27 4 -27 2 c-19 1 -28 7 -31 24 -4
21 -4 21 -6 1z"/>
<path d="M3350 2700 c-12 -8 -11 -10 8 -10 12 0 22 -6 22 -12 0 -9 3 -8 9 2
18 27 -8 40 -39 20z"/>
<path d="M3418 2703 c6 -2 18 -2 25 0 6 3 1 5 -13 5 -14 0 -19 -2 -12 -5z"/>
<path d="M1360 2679 c-30 -7 -28 -7 18 -5 47 3 52 1 53 -18 0 -20 1 -20 8 -1
4 11 19 23 32 26 35 10 -68 8 -111 -2z"/>
<path d="M3163 2683 c15 -2 37 -2 50 0 12 2 0 4 -28 4 -27 0 -38 -2 -22 -4z"/>
<path d="M2772 2643 c9 -2 18 -16 20 -31 3 -26 4 -26 9 6 5 29 3 32 -20 31
-16 -1 -19 -3 -9 -6z"/>
<path d="M2253 2613 c9 -2 25 -2 35 0 9 3 1 5 -18 5 -19 0 -27 -2 -17 -5z"/>
<path d="M3630 2611 c0 -6 5 -13 10 -16 6 -3 10 1 10 9 0 9 -4 16 -10 16 -5 0
-10 -4 -10 -9z"/>
<path d="M1422 2578 c-2 -32 -6 -38 -24 -39 -17 -1 -19 -2 -5 -6 12 -3 17 -15
18 -41 l2 -37 6 35 c4 25 12 36 31 41 23 6 23 7 3 8 -18 1 -23 8 -26 39 l-4
37 -1 -37z"/>
<path d="M1242 2570 c0 -19 2 -27 5 -17 2 9 2 25 0 35 -3 9 -5 1 -5 -18z"/>
<path d="M2791 2564 c0 -11 3 -14 6 -6 3 7 2 16 -1 19 -3 4 -6 -2 -5 -13z"/>
<path d="M3362 2568 c-16 -6 -16 -7 0 -7 10 -1 18 -11 21 -28 l4 -28 2 28 c1
23 5 27 31 27 17 0 30 3 30 8 0 9 -65 9 -88 0z"/>
<path d="M2642 2528 c-1 -25 -7 -38 -19 -41 -10 -3 11 -4 47 -4 43 0 51 2 23
4 -40 4 -42 6 -46 41 l-4 37 -1 -37z"/>
<path d="M1966 2501 c-6 -37 -9 -40 -49 -49 l-42 -10 41 -1 42 -1 -5 -67 c-3
-38 -3 -66 0 -63 5 5 15 76 16 112 1 12 16 19 64 26 l62 9 -58 2 -59 1 3 34
c5 49 -7 54 -15 7z"/>
<path d="M1195 2519 l-40 -6 37 -2 c36 -1 37 -2 41 -43 l4 -43 1 42 c2 46 -4
41 92 56 14 3 -2 4 -35 4 -33 -1 -78 -4 -100 -8z"/>
<path d="M2471 2508 c-1 -28 -2 -28 -72 -28 -66 0 -71 1 -66 20 3 11 1 20 -4
20 -5 0 -9 -9 -9 -19 0 -16 -8 -21 -42 -24 l-43 -4 44 -1 43 -2 -4 -55 c-6
-66 4 -64 12 3 l5 47 68 3 67 3 1 -43 c1 -40 1 -41 9 -15 5 16 6 35 4 42 -3 7
3 15 13 18 15 4 15 5 1 6 -10 1 -18 12 -21 29 l-4 27 -2 -27z"/>
<path d="M100 2490 c0 -5 5 -10 11 -10 5 0 7 5 4 10 -3 6 -8 10 -11 10 -2 0
-4 -4 -4 -10z"/>
<path d="M2755 2493 c11 -3 23 -10 26 -15 3 -5 9 -3 12 6 5 13 0 16 -26 15
-21 -1 -25 -3 -12 -6z"/>
<path d="M2139 2461 c10 -6 12 -23 8 -61 -7 -68 8 -52 17 18 6 49 6 52 -16 52
-17 0 -19 -3 -9 -9z"/>
<path d="M2188 2463 c7 -3 16 -2 19 1 4 3 -2 6 -13 5 -11 0 -14 -3 -6 -6z"/>
<path d="M3380 2425 c0 -8 2 -15 4 -15 2 0 6 7 10 15 3 8 1 15 -4 15 -6 0 -10
-7 -10 -15z"/>
<path d="M2782 2405 c0 -16 2 -22 5 -12 2 9 2 23 0 30 -3 6 -5 -1 -5 -18z"/>
<path d="M2631 2404 c0 -11 3 -14 6 -6 3 7 2 16 -1 19 -3 4 -6 -2 -5 -13z"/>
<path d="M2766 2361 c-18 -7 -18 -8 -2 -14 14 -6 17 -15 14 -42 -2 -19 0 -35
4 -35 4 0 8 23 8 50 0 28 -1 50 -2 49 -2 0 -12 -4 -22 -8z"/>
<path d="M2311 2338 c-1 -13 -13 -18 -53 -21 l-53 -3 54 -2 53 -2 -4 -35 c-2
-19 0 -35 4 -35 4 0 8 16 8 35 0 21 5 35 13 35 8 0 9 3 1 8 -6 4 -14 14 -17
22 -4 12 -6 12 -6 -2z"/>
<path d="M2610 2340 c-24 -6 -24 -6 -3 -12 19 -5 21 -11 16 -49 -3 -24 -10
-46 -15 -47 -10 -4 0 -22 13 -22 5 0 9 18 9 39 0 22 4 51 10 65 11 30 4 35
-30 26z"/>
<path d="M2454 2329 c-16 -6 -16 -8 -2 -8 10 -1 18 -11 21 -28 l4 -28 2 27 c1
19 7 28 24 30 21 3 21 4 -4 9 -14 3 -34 2 -45 -2z"/>
<path d="M2363 2323 c9 -2 25 -2 35 0 9 3 1 5 -18 5 -19 0 -27 -2 -17 -5z"/>
<path d="M3458 2313 c18 -2 45 -2 60 0 15 2 0 4 -33 4 -33 0 -45 -2 -27 -4z"/>
<path d="M1210 2285 c-4 -22 -10 -29 -22 -27 -10 2 -18 -2 -18 -8 0 -5 7 -10
15 -10 10 0 15 -11 16 -37 l2 -38 6 35 c6 34 7 35 61 41 l55 6 -52 1 c-51 2
-52 3 -55 35 l-4 32 -4 -30z"/>
<path d="M1391 2294 c0 -11 3 -14 6 -6 3 7 2 16 -1 19 -3 4 -6 -2 -5 -13z"/>
<path d="M1975 2299 c-120 -13 -132 -19 -25 -13 52 3 99 9 105 15 5 5 7 8 5 8
-3 -1 -41 -5 -85 -10z"/>
<path d="M3376 2295 c4 -8 8 -15 10 -15 2 0 4 7 4 15 0 8 -4 15 -10 15 -5 0
-7 -7 -4 -15z"/>
<path d="M1380 2250 c0 -6 7 -10 15 -10 8 0 15 2 15 4 0 2 -7 6 -15 10 -8 3
-15 1 -15 -4z"/>
<path d="M3340 2238 c0 -19 2 -20 10 -8 13 19 13 30 0 30 -5 0 -10 -10 -10
-22z"/>
<path d="M2740 2246 c0 -9 39 -13 51 -5 10 6 4 9 -18 9 -18 0 -33 -2 -33 -4z"/>
<path d="M2698 2233 c7 -3 16 -2 19 1 4 3 -2 6 -13 5 -11 0 -14 -3 -6 -6z"/>
<path d="M2301 2218 c-1 -12 -12 -18 -38 -21 l-38 -4 38 -1 c36 -2 37 -3 39
-39 l1 -38 4 35 c3 19 10 38 16 42 9 6 9 8 0 8 -6 0 -14 8 -16 18 -4 15 -5 15
-6 0z"/>
<path d="M2393 2203 c9 -2 23 -2 30 0 6 3 -1 5 -18 5 -16 0 -22 -2 -12 -5z"/>
<path d="M2770 2166 l0 -45 -42 -5 c-97 -13 -100 -14 -33 -13 l70 2 1 -62 c2
-50 -1 -63 -13 -63 -12 0 -13 -3 -4 -14 7 -9 11 -38 9 -73 l-3 -58 -65 -12
-65 -12 64 5 64 5 -6 -53 c-4 -29 -7 -65 -7 -80 0 -21 -5 -27 -27 -31 l-28 -4
27 -2 c19 -1 28 -7 31 -23 4 -22 4 -22 6 -2 1 18 11 24 66 34 36 7 68 10 71 7
3 -3 6 -19 6 -36 1 -37 13 -31 13 7 0 24 6 28 50 38 28 7 65 13 83 13 30 1 32
-1 32 -34 0 -19 5 -35 10 -35 6 0 10 -5 10 -11 0 -5 -4 -7 -10 -4 -6 4 -10 -6
-10 -24 0 -28 -3 -30 -42 -35 -84 -11 -92 -14 -38 -14 30 0 60 -1 67 -1 7 -1
13 -22 16 -53 3 -42 4 -35 6 32 2 55 6 74 10 55 3 -16 14 -45 24 -64 28 -50
11 -111 -29 -111 -2 0 -4 8 -4 18 -1 16 -1 16 -11 0 -7 -13 -24 -18 -57 -20
l-47 -1 50 -6 50 -6 -3 -45 c-2 -25 -9 -51 -16 -58 -6 -7 -40 -17 -75 -23 -52
-10 -65 -9 -72 2 -6 9 -9 10 -9 2 0 -7 -20 -13 -47 -16 l-48 -3 49 -2 48 -2
-4 -65 c-2 -36 -1 -65 4 -65 4 0 8 28 10 63 l3 62 50 3 c48 3 49 3 32 -16 -9
-10 -17 -24 -17 -30 0 -6 -11 -19 -24 -29 -13 -10 -31 -34 -41 -53 -10 -19
-34 -52 -54 -72 -29 -30 -38 -50 -48 -103 -8 -44 -9 -75 -2 -91 12 -33 12 -34
-8 -34 -11 0 -3 -8 17 -18 19 -9 35 -23 34 -29 -1 -7 -2 -35 -2 -62 -2 -48 -3
-50 -34 -54 l-33 -4 33 -1 32 -2 -4 -72 -5 -73 10 73 11 72 53 0 c56 0 64 -9
65 -67 0 -15 11 -27 37 -40 45 -22 55 -43 19 -43 -14 0 -26 5 -26 10 0 15 -36
12 -50 -5 -7 -8 -22 -16 -34 -16 -20 -1 -20 -2 -1 -6 21 -6 85 -68 85 -83 0
-5 9 -18 20 -28 18 -16 21 -33 23 -120 2 -91 4 -102 20 -102 22 0 99 21 208
56 l76 25 -5 54 c-4 54 -4 55 21 55 23 0 26 -5 30 -42 l4 -43 1 47 c2 43 4 47
30 51 15 2 -1 5 -35 6 -63 1 -63 1 -63 30 0 30 25 65 40 56 11 -7 24 31 15 44
-8 14 49 23 130 19 l70 -3 3 -72 3 -73 -37 0 c-45 0 -42 -5 7 -13 l36 -5 7
141 c4 78 6 153 6 167 0 14 -2 135 -4 270 -4 235 -12 388 -22 420 -4 11 -7 11
-13 2 -8 -14 -85 -29 -119 -24 -21 3 -42 32 -56 79 -6 18 -2 22 21 26 l28 4
-27 2 c-25 1 -28 5 -28 34 0 45 41 135 65 143 19 6 18 7 -4 16 -22 8 -22 9 -7
31 38 53 38 55 5 89 -40 41 -59 86 -59 137 0 44 12 41 -106 26 -35 -4 -36 -3
-29 23 6 24 9 83 6 135 -1 10 -5 16 -10 13 -5 -3 -7 -15 -4 -26 3 -11 0 -20
-6 -20 -6 0 -11 6 -11 14 0 21 -26 27 -47 11 -25 -20 -93 -20 -93 0 0 22 -17
18 -23 -5 -3 -13 -14 -20 -29 -20 -41 -1 -221 -20 -240 -26 -16 -5 -18 1 -18
60 0 46 4 66 13 66 8 0 8 3 -2 9 -10 6 -12 21 -8 50 3 23 1 41 -4 41 -5 0 -9
-20 -9 -44z m363 -183 c-10 -15 -26 -36 -35 -45 -15 -15 -18 -36 -18 -122 l0
-104 -67 -12 c-38 -6 -76 -14 -85 -17 -16 -4 -18 4 -18 71 l0 76 65 0 c41 0
65 4 65 11 0 8 -20 9 -65 4 l-65 -7 0 64 c0 35 4 68 8 75 4 7 40 14 86 17 43
2 80 7 83 10 4 3 19 6 35 6 l28 0 -17 -27z m-235 -75 l3 -68 -46 0 c-25 0 -45
-4 -45 -9 0 -4 11 -6 24 -4 35 7 63 -12 60 -39 -1 -13 -3 -42 -3 -64 l-1 -42
-47 -7 c-27 -3 -59 -9 -72 -12 -23 -6 -24 -5 -17 43 14 102 18 114 35 115 14
1 13 2 -1 6 -14 3 -18 15 -18 51 0 90 11 101 90 98 l35 -1 3 -67z m469 -42
c-3 -7 0 -19 6 -25 9 -10 6 -10 -14 -2 -15 5 -30 7 -33 4 -4 -4 -22 -12 -41
-19 -35 -11 -35 -11 -35 16 0 31 11 36 84 39 29 1 37 -2 33 -13z m-237 -51 c7
-8 16 -13 20 -10 5 3 12 0 15 -5 4 -6 19 -10 33 -8 19 2 27 -2 27 -12 0 -11
-15 -16 -61 -18 -59 -3 -62 -2 -68 23 -11 42 10 59 34 30z m-30 -465 c0 -5 -4
-10 -10 -10 -5 0 -10 5 -10 10 0 6 5 10 10 10 6 0 10 -4 10 -10z m480 -101 c0
-30 -19 -79 -30 -79 -31 0 -114 89 -98 105 12 12 103 21 116 12 6 -5 12 -22
12 -38z m-135 -37 c-9 -9 -25 19 -24 43 0 16 2 15 15 -8 9 -16 13 -32 9 -35z
m-505 -563 c0 -5 -20 -9 -45 -9 -49 0 -52 4 -38 71 l6 33 39 -43 c21 -24 38
-47 38 -52z m608 -25 c12 -4 22 -14 23 -23 0 -12 2 -11 9 4 6 14 9 2 9 -42 l1
-63 -100 0 c-109 0 -110 1 -89 57 6 17 13 23 17 16 5 -8 12 -2 20 16 9 21 18
28 31 24 10 -3 22 0 25 6 8 12 21 13 54 5z m-498 -223 c0 -9 -22 -31 -31 -31
-8 0 -19 37 -12 43 6 7 43 -4 43 -12z m0 -41 c0 -5 -4 -10 -10 -10 -5 0 -10 5
-10 10 0 6 5 10 10 10 6 0 10 -4 10 -10z"/>
<path d="M2613 2160 c0 -25 2 -35 4 -22 2 12 2 32 0 45 -2 12 -4 2 -4 -23z"/>
<path d="M3081 2173 c-1 -11 -114 -34 -156 -32 -11 0 -40 -4 -65 -9 l-45 -10
48 -1 48 -1 -4 -45 c-2 -25 0 -45 4 -45 4 0 9 21 11 48 l3 47 65 11 c36 6 70
9 77 6 7 -2 14 -20 16 -40 l4 -37 1 37 c2 32 6 37 30 41 l27 4 -27 2 c-16 0
-28 8 -31 19 -3 9 -5 12 -6 5z"/>
<path d="M1293 2123 c9 -2 23 -2 30 0 6 3 -1 5 -18 5 -16 0 -22 -2 -12 -5z"/>
<path d="M1368 2123 c12 -2 30 -2 40 0 9 3 -1 5 -23 4 -22 0 -30 -2 -17 -4z"/>
<path d="M2122 2103 c-2 -30 -5 -33 -34 -34 -31 -2 -31 -2 -5 -6 25 -4 27 -8
28 -56 l1 -52 10 52 c8 46 13 52 36 56 l27 4 -27 2 c-22 1 -27 6 -31 34 l-4
32 -1 -32z"/>
<path d="M2501 2096 c7 -8 108 -10 115 -3 4 4 -21 7 -56 7 -35 0 -61 -2 -59
-4z"/>
<path d="M3550 2018 c1 -46 1 -89 1 -95 -1 -8 -16 -13 -38 -14 -21 0 -56 -4
-78 -9 -33 -7 -26 -8 40 -7 l80 2 3 -65 3 -65 -47 -3 c-74 -5 -90 -21 -19 -19
l60 2 3 -82 3 -83 -33 -1 c-18 0 -42 -4 -53 -9 -13 -6 -4 -7 26 -3 33 4 49 1
55 -8 4 -8 11 -61 15 -119 4 -58 5 41 1 220 -3 179 -5 351 -4 383 1 33 -3 57
-9 57 -6 0 -10 -32 -9 -82z"/>
<path d="M4032 2070 c0 -19 2 -27 5 -17 2 9 2 25 0 35 -3 9 -5 1 -5 -18z"/>
<path d="M2603 2030 c0 -25 2 -35 4 -22 2 12 2 32 0 45 -2 12 -4 2 -4 -23z"/>
<path d="M3383 2015 c0 -22 2 -30 4 -17 2 12 2 30 0 40 -3 9 -5 -1 -4 -23z"/>
<path d="M3438 2033 c7 -3 16 -2 19 1 4 3 -2 6 -13 5 -11 0 -14 -3 -6 -6z"/>
<path d="M3498 2033 c6 -2 18 -2 25 0 6 3 1 5 -13 5 -14 0 -19 -2 -12 -5z"/>
<path d="M4032 2000 c0 -19 2 -27 5 -17 2 9 2 25 0 35 -3 9 -5 1 -5 -18z"/>
<path d="M1320 2010 l-45 -7 43 -1 c32 -2 42 -6 43 -19 0 -15 2 -15 9 2 11 26
12 35 3 33 -5 0 -28 -4 -53 -8z"/>
<path d="M1068 1983 c6 -2 18 -2 25 0 6 3 1 5 -13 5 -14 0 -19 -2 -12 -5z"/>
<path d="M2590 1973 c0 -6 -15 -14 -32 -16 l-33 -4 32 -1 c26 -2 32 -7 36 -29
l4 -28 2 28 c1 23 5 27 34 28 l32 2 -30 4 c-16 3 -33 10 -37 16 -6 9 -8 9 -8
0z"/>
<path d="M3630 1946 c0 -24 17 -28 23 -6 3 13 0 20 -9 20 -8 0 -14 -6 -14 -14z"/>
<path d="M2070 1920 c0 -5 7 -10 15 -10 8 0 15 -8 16 -17 0 -15 2 -14 11 4 7
14 22 23 42 26 17 2 6 4 -26 5 -33 1 -58 -2 -58 -8z"/>
<path d="M1253 1843 c9 -2 25 -2 35 0 9 3 1 5 -18 5 -19 0 -27 -2 -17 -5z"/>
<path d="M2572 1704 l-2 -51 -52 -10 -53 -10 48 -2 47 -1 1 -52 c1 -58 6 -55
11 7 4 40 4 40 58 52 l55 11 -52 1 -52 1 -4 53 -3 52 -2 -51z"/>
<path d="M1035 1700 c-3 -5 -1 -10 4 -10 6 0 11 5 11 10 0 6 -2 10 -4 10 -3 0
-8 -4 -11 -10z"/>
<path d="M3665 1628 c-3 -7 -4 -33 -3 -58 1 -25 -2 -60 -6 -77 -5 -20 -5 -33
1 -33 5 0 15 23 21 51 14 61 15 89 3 89 -5 0 -7 9 -4 20 6 22 -5 28 -12 8z"/>
<path d="M310 1620 c0 -5 7 -7 15 -4 8 4 15 8 15 10 0 2 -7 4 -15 4 -8 0 -15
-4 -15 -10z"/>
<path d="M2732 1560 c0 -14 2 -19 5 -12 2 6 2 18 0 25 -3 6 -5 1 -5 -13z"/>
<path d="M2891 1553 c-1 -7 -8 -13 -17 -13 -8 0 -12 -5 -9 -10 4 -6 11 -8 16
-5 5 4 9 -11 10 -32 1 -37 1 -37 9 -10 5 16 14 35 21 43 9 11 8 14 -4 14 -8 0
-18 6 -20 13 -4 10 -6 10 -6 0z"/>
<path d="M2803 1523 c9 -2 25 -2 35 0 9 3 1 5 -18 5 -19 0 -27 -2 -17 -5z"/>
<path d="M2180 1490 c-12 -8 -10 -10 8 -10 13 0 20 4 17 10 -7 12 -6 12 -25 0z"/>
<path d="M2550 1390 c-5 -32 -8 -36 -45 -41 l-40 -6 42 -2 42 -1 4 -52 3 -53
2 52 c2 45 5 52 25 56 22 4 22 4 0 6 -18 1 -22 8 -25 39 l-4 37 -4 -35z"/>
<path d="M3478 1413 c18 -2 45 -2 60 0 15 2 0 4 -33 4 -33 0 -45 -2 -27 -4z"/>
<path d="M2868 1373 c14 -3 22 -12 23 -26 l0 -22 11 22 c6 12 22 24 37 26 14
2 -1 4 -34 4 -33 0 -50 -2 -37 -4z"/>
<path d="M2388 1358 c-3 -7 -2 -31 1 -53 l7 -40 6 40 c6 42 -4 80 -14 53z"/>
<path d="M2798 1363 c7 -3 16 -2 19 1 4 3 -2 6 -13 5 -11 0 -14 -3 -6 -6z"/>
<path d="M2428 1343 c6 -2 18 -2 25 0 6 3 1 5 -13 5 -14 0 -19 -2 -12 -5z"/>
<path d="M1120 1291 c0 -16 -8 -21 -47 -24 l-48 -3 47 -2 c45 -2 47 -3 50 -34
3 -23 5 -16 8 25 3 31 2 57 -2 57 -5 0 -8 -9 -8 -19z"/>
<path d="M2892 1290 c0 -14 2 -19 5 -12 2 6 2 18 0 25 -3 6 -5 1 -5 -13z"/>
<path d="M1153 1263 c9 -2 23 -2 30 0 6 3 -1 5 -18 5 -16 0 -22 -2 -12 -5z"/>
<path d="M2383 1231 c-4 -14 -16 -21 -42 -24 l-36 -4 38 -1 37 -2 0 -70 c0
-70 0 -70 -27 -71 -27 0 -27 -1 -5 -9 20 -8 22 -16 22 -75 0 -64 0 -65 -27
-66 -24 -2 -25 -2 -5 -6 19 -4 22 -11 23 -61 l2 -57 10 57 c9 50 13 57 36 61
25 4 25 4 -3 6 l-28 1 5 68 c4 37 8 101 9 142 l3 75 45 6 45 6 -47 1 c-41 2
-46 4 -41 22 3 11 2 20 -2 20 -4 0 -9 -9 -12 -19z"/>
<path d="M2665 1229 l-40 -6 37 -2 c32 -1 37 -5 41 -28 l4 -28 2 27 c1 23 6
27 39 30 l37 3 -40 5 c-22 3 -58 2 -80 -1z"/>
<path d="M1280 1190 c0 -16 2 -30 4 -30 2 0 6 14 8 30 3 17 1 30 -4 30 -4 0
-8 -13 -8 -30z"/>
<path d="M2494 1208 c-4 -7 -3 -8 5 -4 6 4 20 4 31 1 17 -5 20 -15 20 -70 l0
-64 -57 -6 c-87 -9 -96 -14 -23 -12 l65 2 3 -59 c2 -39 -1 -62 -9 -67 -10 -6
-10 -11 -1 -22 12 -14 14 -88 2 -106 -3 -6 -30 -15 -60 -20 l-55 -10 55 2 55
1 6 -59 6 -60 3 48 c1 26 3 53 4 60 1 8 23 13 68 15 l67 3 4 -33 c3 -25 4 -20
5 17 1 28 5 74 8 103 6 46 9 52 30 52 13 0 24 4 24 9 0 4 -10 8 -22 7 -21 -1
-23 4 -26 66 l-3 67 38 4 38 4 -39 1 c-37 2 -38 3 -34 32 3 17 1 30 -4 30 -4
0 -8 -13 -8 -30 0 -23 -5 -30 -19 -30 -10 0 -39 -3 -65 -6 l-46 -7 0 71 c0 65
2 71 23 75 12 2 -1 5 -30 6 -30 0 -55 -4 -59 -11z m196 -208 l0 -70 -70 0
c-78 0 -76 -3 -64 83 7 50 9 51 102 55 l32 2 0 -70z m-5 -89 c3 -5 2 -35 -1
-65 l-7 -56 -66 0 -66 0 3 52 c2 29 5 59 7 66 5 14 121 17 130 3z"/>
<path d="M1030 1120 l-35 -7 42 -2 c23 0 45 4 48 9 7 11 -3 11 -55 0z"/>
<path d="M948 1113 c6 -2 18 -2 25 0 6 3 1 5 -13 5 -14 0 -19 -2 -12 -5z"/>
<path d="M2784 1078 c-7 -11 46 -9 71 2 15 7 9 9 -23 8 -24 -1 -46 -6 -48 -10z"/>
<path d="M1102 1025 c0 -16 2 -22 5 -12 2 9 2 23 0 30 -3 6 -5 -1 -5 -18z"/>
<path d="M1090 980 c0 -5 7 -10 16 -10 8 0 12 5 9 10 -3 6 -10 10 -16 10 -5 0
-9 -4 -9 -10z"/>
<path d="M938 963 c7 -3 16 -2 19 1 4 3 -2 6 -13 5 -11 0 -14 -3 -6 -6z"/>
<path d="M2221 923 c-1 -19 -7 -23 -38 -24 l-38 -2 35 -6 35 -6 -2 -55 -2 -55
12 55 c12 54 13 55 52 61 l40 6 -42 2 c-35 1 -42 5 -46 24 l-4 22 -2 -22z"/>
<path d="M660 916 c0 -8 4 -17 9 -20 5 -4 7 3 4 14 -6 23 -13 26 -13 6z"/>
<path d="M2458 913 c12 -2 30 -2 40 0 9 3 -1 5 -23 4 -22 0 -30 -2 -17 -4z"/>
<path d="M1076 819 c-4 -20 -6 -47 -3 -60 3 -19 5 -18 6 8 0 19 8 36 19 42 9
6 12 11 5 11 -6 0 -13 8 -16 18 -2 10 -7 3 -11 -19z"/>
<path d="M1256 843 c-1 -1 0 -19 3 -40 5 -37 5 -37 10 -8 5 25 11 30 46 33 56
5 55 9 -5 13 -29 2 -53 3 -54 2z"/>
<path d="M1383 843 c9 -2 23 -2 30 0 6 3 -1 5 -18 5 -16 0 -22 -2 -12 -5z"/>
<path d="M1198 823 c6 -2 18 -2 25 0 6 3 1 5 -13 5 -14 0 -19 -2 -12 -5z"/>
<path d="M1038 813 c7 -3 16 -2 19 1 4 3 -2 6 -13 5 -11 0 -14 -3 -6 -6z"/>
<path d="M3680 720 c0 -104 14 -104 17 0 1 44 -3 80 -8 80 -5 0 -9 -36 -9 -80z"/>
<path d="M2310 769 l-55 -6 51 -1 51 -2 -3 -72 -3 -73 9 64 c5 35 11 70 14 77
7 19 -1 20 -64 13z"/>
<path d="M2180 761 l-35 -4 30 -6 c22 -5 30 -12 31 -29 2 -35 14 -39 14 -4 0
21 5 32 18 34 30 6 -18 14 -58 9z"/>
<path d="M1250 720 c0 -24 -4 -30 -22 -31 l-23 0 23 -9 c13 -6 22 -18 23 -32
1 -22 1 -22 8 2 6 22 14 26 61 31 l55 6 -58 1 -57 2 5 30 c3 17 1 30 -5 30 -5
0 -10 -13 -10 -30z"/>
<path d="M2093 743 c9 -2 25 -2 35 0 9 3 1 5 -18 5 -19 0 -27 -2 -17 -5z"/>
<path d="M1563 703 c9 -2 23 -2 30 0 6 3 -1 5 -18 5 -16 0 -22 -2 -12 -5z"/>
<path d="M2682 690 c0 -14 2 -19 5 -12 2 6 2 18 0 25 -3 6 -5 1 -5 -13z"/>
<path d="M1055 670 c-3 -5 1 -10 10 -10 9 0 13 5 10 10 -3 6 -8 10 -10 10 -2
0 -7 -4 -10 -10z"/>
<path d="M1153 673 c9 -2 25 -2 35 0 9 3 1 5 -18 5 -19 0 -27 -2 -17 -5z"/>
<path d="M2207 673 c-4 -3 -7 -24 -7 -46 0 -33 -3 -38 -17 -33 -16 6 -17 5 -2
-7 9 -7 19 -21 22 -32 4 -15 5 -14 6 7 1 23 6 27 39 31 l37 4 -39 1 -38 2 4
40 c2 22 3 40 2 40 0 0 -4 -3 -7 -7z"/>
<path d="M983 663 c9 -2 23 -2 30 0 6 3 -1 5 -18 5 -16 0 -22 -2 -12 -5z"/>
<path d="M2530 620 c-36 -4 -55 -7 -43 -8 16 -1 24 -10 29 -29 10 -48 12 -49
13 -10 1 36 2 37 39 37 20 0 54 3 74 6 l37 6 4 -83 3 -84 2 82 c2 81 2 82 30
86 44 7 -117 4 -188 -3z"/>
<path d="M2305 603 c11 -3 24 -9 29 -14 6 -5 14 -5 20 0 6 5 27 11 46 14 19 2
1 4 -40 4 -41 0 -66 -1 -55 -4z"/>
<path d="M1051 584 c0 -11 3 -14 6 -6 3 7 2 16 -1 19 -3 4 -6 -2 -5 -13z"/>
<path d="M2108 583 c7 -3 16 -2 19 1 4 3 -2 6 -13 5 -11 0 -14 -3 -6 -6z"/>
<path d="M1488 533 c7 -3 16 -2 19 1 4 3 -2 6 -13 5 -11 0 -14 -3 -6 -6z"/>
<path d="M2343 490 c0 -25 2 -35 4 -22 2 12 2 32 0 45 -2 12 -4 2 -4 -23z"/>
<path d="M1098 513 c6 -2 18 -2 25 0 6 3 1 5 -13 5 -14 0 -19 -2 -12 -5z"/>
<path d="M2510 493 c0 -37 -10 -50 -40 -56 l-25 -4 27 -2 c24 -1 27 -5 31 -43
l4 -43 1 42 c2 41 3 42 40 46 l37 4 -35 1 c-35 2 -35 2 -32 42 2 22 1 40 -2
40 -3 0 -6 -12 -6 -27z"/>
<path d="M2192 480 c0 -19 2 -27 5 -17 2 9 2 25 0 35 -3 9 -5 1 -5 -18z"/>
<path d="M1243 450 c0 -25 2 -35 4 -22 2 12 2 32 0 45 -2 12 -4 2 -4 -23z"/>
<path d="M2810 459 c-20 -6 -17 -7 18 -8 23 -1 42 1 42 3 0 9 -37 12 -60 5z"/>
<path d="M2639 440 c24 -4 58 -3 75 1 22 5 9 7 -44 7 -65 0 -69 -1 -31 -8z"/>
<path d="M2285 430 l-50 -7 48 -1 c44 -2 47 -4 47 -29 0 -33 5 -28 13 15 4 17
3 31 -1 30 -4 0 -29 -4 -57 -8z"/>
<path d="M2090 420 l-65 -7 68 -1 c39 -1 67 2 67 8 0 6 -1 9 -2 8 -2 -1 -32
-4 -68 -8z"/>
<path d="M2178 423 c-2 -5 -1 -24 3 -43 l6 -35 2 33 c1 24 7 35 24 42 21 8 21
9 -5 9 -15 1 -28 -2 -30 -6z"/>
<path d="M2368 423 c7 -3 16 -2 19 1 4 3 -2 6 -13 5 -11 0 -14 -3 -6 -6z"/>
<path d="M3681 414 c0 -11 3 -14 6 -6 3 7 2 16 -1 19 -3 4 -6 -2 -5 -13z"/>
<path d="M1957 414 c-8 -8 1 -24 14 -24 5 0 9 7 9 15 0 15 -12 20 -23 9z"/>
<path d="M1320 390 c-34 -7 -34 -7 -5 -8 17 -1 48 3 70 7 l40 9 -35 0 c-19 -1
-51 -4 -70 -8z"/>
<path d="M3381 374 c0 -11 3 -14 6 -6 3 7 2 16 -1 19 -3 4 -6 -2 -5 -13z"/>
<path d="M2822 338 l-2 -48 -69 0 -70 0 -4 33 -4 32 -1 -32 -2 -32 -87 0 c-49
0 -108 0 -133 -2 l-45 -2 40 -6 c39 -6 40 -7 46 -56 l6 -50 1 53 2 53 83 -3
82 -3 0 -58 c0 -31 3 -57 8 -57 4 0 7 27 7 60 l0 60 69 0 70 0 3 -42 3 -43 5
45 c3 25 2 68 -1 95 l-6 50 -1 -47z"/>
<path d="M1967 363 c-4 -3 -6 -25 -6 -47 l2 -41 7 45 c8 48 7 54 -3 43z"/>
<path d="M2331 323 c-1 -27 -5 -33 -23 -34 l-23 0 22 -11 c16 -8 23 -21 25
-52 l3 -41 5 50 c3 28 2 66 -1 85 l-6 35 -2 -32z"/>
<path d="M2167 303 c-2 -21 -1 -42 3 -46 4 -5 9 12 11 37 5 55 -7 62 -14 9z"/>
<path d="M3473 333 c9 -2 23 -2 30 0 6 3 -1 5 -18 5 -16 0 -22 -2 -12 -5z"/>
<path d="M2931 286 c9 -8 99 -13 99 -5 0 5 -23 9 -52 9 -28 0 -49 -2 -47 -4z"/>
<path d="M1930 256 c14 -7 30 -9 35 -5 6 4 28 9 50 12 24 2 9 4 -35 5 -68 2
-73 0 -50 -12z"/>
<path d="M1585 245 c32 -14 68 -9 43 6 -7 5 -26 8 -43 8 l-30 -1 30 -13z"/>
<path d="M1713 253 c54 -3 67 -7 67 -20 0 -16 1 -16 13 0 6 9 30 18 52 20 22
2 -14 4 -80 3 -66 0 -90 -1 -52 -3z"/>
<path d="M2163 200 c0 -25 2 -35 4 -22 2 12 2 32 0 45 -2 12 -4 2 -4 -23z"/>
<path d="M1953 190 c0 -25 2 -35 4 -22 2 12 2 32 0 45 -2 12 -4 2 -4 -23z"/>
<path d="M2480 150 c0 -11 -6 -20 -12 -20 -10 0 -10 -2 -1 -8 6 -4 13 -21 16
-37 l4 -30 2 33 c0 18 6 32 14 32 8 0 8 3 -2 9 -8 5 -11 16 -8 25 4 9 2 16 -3
16 -6 0 -10 -9 -10 -20z"/>
<path d="M2810 163 c0 -9 -17 -13 -54 -13 -29 0 -82 -3 -117 -7 l-64 -8 45 -5
c40 -4 46 -8 51 -35 6 -29 7 -29 8 8 l1 37 65 0 c39 0 65 -4 65 -11 0 -5 5 -7
12 -3 7 4 28 11 48 15 l35 8 -38 -2 c-24 -1 -41 4 -47 13 -7 10 -10 11 -10 3z"/>
<path d="M2321 148 c-1 -12 -12 -18 -43 -21 l-43 -4 43 -1 c38 -2 42 -4 42
-29 0 -14 3 -23 7 -19 4 4 8 15 8 24 0 10 11 19 30 23 l30 7 -32 1 c-21 1 -33
7 -36 19 -4 15 -5 15 -6 0z"/>
<path d="M2953 153 c15 -2 39 -2 55 0 15 2 2 4 -28 4 -30 0 -43 -2 -27 -4z"/>
<path d="M2101 126 c11 -9 69 -14 69 -6 0 6 -16 10 -37 10 -20 0 -34 -2 -32
-4z"/>
<path d="M2008 113 c6 -2 18 -2 25 0 6 3 1 5 -13 5 -14 0 -19 -2 -12 -5z"/>
</g>
</svg>
